<?xml version="1.0" encoding="utf-8"?>
<!-- Generator: Adobe Illustrator 18.1.1, SVG Export Plug-In . SVG Version: 6.00 Build 0)  -->
<svg version="1.1" xmlns="http://www.w3.org/2000/svg" xmlns:xlink="http://www.w3.org/1999/xlink" x="0px" y="0px"
	 viewBox="0 0 250 250" enable-background="new 0 0 250 250" xml:space="preserve">
<g id="Layer_2_1_" display="none">
	<rect display="inline" width="250" height="250"/>
</g>
<g id="Layer_1">
	<g id="Layer_2" display="none">
		<rect display="inline" fill="#2DCC70" width="250" height="250"/>
	</g>
	<path fill="#FFFFFF" d="M96,54.2c0,6.7-0.2,13.3,0.1,19.9c0.2,4.2,2.8,7.2,6.1,9.6c5.8,4.3,9.7,9.8,11.7,16.7
		c1.3,4.5,1.5,9.1,1.2,13.9c-2.6,0-5.1,0-7.6,0c-7.7,0-15.4,0-23.1,0c-3.6,0-5.3,1.7-5.3,5.3c0,17.8,0,35.6,0,53.4
		c0,4.1,1.6,5.7,5.7,5.7c9.4,0,18.7,0,28.1,0c0.7,0,1.4,0,2.1,0c0,5.7,0.2,11.2-0.1,16.7c-0.2,3.3-3.1,5.6-6.5,5.7
		c-16,0-32.1,0-48.1,0c-3.9,0-6.6-3-6.6-7.2c0-16.2,0-32.4,0-48.5c0-11.4,0.1-22.7,0-34.1c-0.1-11.6,4-20.9,13.5-27.9
		c3.8-2.8,5.9-6.7,5.7-11.6c-0.1-5.3,0-10.5,0-15.8c0-0.6-0.1-1.1-0.1-1.6c-3.7-1.1-4.1-1.6-4.1-5.4c0-2.8,0-5.5,0-8.3
		c0-2.4,1.3-3.7,3.7-3.7c8,0,15.9,0,23.9,0c2.4,0,3.8,1.2,3.8,3.6c0.1,3.3,0.1,6.5,0,9.8C100.1,52.6,99.1,53.4,96,54.2z"/>
	<path fill="#FFFFFF" d="M125.9,200.9c0.1-2.1,1.4-3.4,2.8-4.7c3.3-3,7.3-4.8,11.5-6c3.4-1,7-1.7,10.5-2.3c1.1-0.2,1.5-0.5,1.5-1.6
		c0-12.8,0-25.5,0-38.3c0-1-0.2-1.5-1.3-1.7c-15.2-3-30.5-17.4-28-40.6c0.6-6,1.9-11.7,4.5-17.2c0.7-1.5,1.6-2,3.2-2
		c18.5,0.1,37,0,55.5,0.1c0.8,0,2,0.4,2.4,1c6.2,10.8,9.1,31.5-1.5,45.1c-5.4,7-12.3,11.6-20.9,13.5c-1.3,0.3-1.6,0.8-1.6,2
		c0,12.6,0,25.2,0,37.7c0,1.4,0.3,1.8,1.8,2c5.8,0.7,11.5,2.1,16.7,4.9c1.9,1,3.7,2.2,5.2,3.6c1.2,1.1,2,2.7,3.3,4.4
		C169.1,200.9,147.5,200.9,125.9,200.9z M136.7,99c-1.6,4.1-2.2,12.2-1.3,16.6c0.2,1.1,0.7,1.3,1.7,1.3c2.8,0,5.5,0,8.3,0
		c11.2,0,22.4,0,33.7,0c1.5,0,2.3-0.2,2.3-1.9c0-3.1,0.2-6.3,0-9.4c-0.1-2.2-0.8-4.5-1.2-6.6C165.4,99,151,99,136.7,99z"/>
	<path fill="#FFFFFF" d="M115.1,123.7c0,15.2,0,30.3,0,45.6c-8.9,0-17.7,0-26.7,0c0-15.1,0-30.3,0-45.6
		C97.3,123.7,106.1,123.7,115.1,123.7z"/>
</g>
</svg>
