<?xml version="1.0" encoding="utf-8"?>
<!-- Generator: Adobe Illustrator 18.1.1, SVG Export Plug-In . SVG Version: 6.00 Build 0)  -->
<svg version="1.1" id="Layer_1" xmlns="http://www.w3.org/2000/svg" xmlns:xlink="http://www.w3.org/1999/xlink" x="0px" y="0px"
	 viewBox="0 0 250 250" enable-background="new 0 0 250 250" xml:space="preserve">
<g id="Layer_2" display="none">
	<rect display="inline" fill="#2DCC70" width="250" height="250"/>
</g>
<g>
	<path fill="#FFFFFF" d="M93.6,103.2V67c0-13.3,10.8-24.2,24.2-24.2s24.2,10.8,24.2,24.2v36.2c11.7-7.8,19.3-21.1,19.3-36.2
		c0-24.1-19.4-43.5-43.5-43.5S74.2,42.9,74.2,67C74.2,82.1,81.9,95.3,93.6,103.2z M188.7,147.9l-43.9-21.8c-1.6-0.7-3.4-1.1-5.2-1.1
		h-7.3V67c0-8-6.5-14.5-14.5-14.5S103.2,59,103.2,67v103.8l-33.2-7c-0.8-0.1-1.5-0.3-2.3-0.3c-3,0-5.7,1.3-7.6,3.2l-7.6,7.7
		l47.8,47.8c2.6,2.6,6.3,4.3,10.2,4.3h65.6c7.3,0,12.9-5.3,13.9-12.4l7.3-50.9c0.1-0.7,0.2-1.4,0.2-1.9
		C197.5,155.3,193.8,150,188.7,147.9z"/>
</g>
</svg>
