<?xml version="1.0" encoding="utf-8"?>
<!-- Generator: Adobe Illustrator 18.1.1, SVG Export Plug-In . SVG Version: 6.00 Build 0)  -->
<svg version="1.1" id="Layer_1" xmlns="http://www.w3.org/2000/svg" xmlns:xlink="http://www.w3.org/1999/xlink" x="0px" y="0px"
	 viewBox="0 0 250 250" enable-background="new 0 0 250 250" xml:space="preserve">
<g id="Layer_2" display="none">
	<rect display="inline" fill="#2DCC70" width="250" height="250"/>
</g>
<path fill="#FFFFFF" d="M107.7,54.9c1,0.1,1.3,0.1,1.6,0.2c4.2,2.3,7.7,0.8,10.9-2.1c0.6-0.5,1.3-1,2.1-1.2c4.2-1.2,7-3.6,7.3-8.4
	c0.1-1.9,1.8-2.6,3.8-2.6c2.8,0,5.6,0.1,8.4,0c2.6-0.1,4.2,0.9,4.5,3.6c0.4,3.5,1.9,5.6,5.5,6.7c2.4,0.7,4.6,2.4,6.6,4
	c1.6,1.4,3,1.4,4.8,0.9c5.6-1.7,5.8-1.6,8.7,3.5c0.8,1.5,1.6,3,2.5,4.4c1.9,2.6,1.5,4.9-1.1,6.7c-2.6,1.8-3.2,3.9-2.5,7.1
	c0.6,2.4,0.3,5.2-0.2,7.7c-0.5,2.4,0.1,3.8,1.8,5.4c4,3.7,4,3.8,1.3,8.5c-0.2,0.4-0.5,0.9-0.7,1.3c-3.8,6.5-3.2,8.1-11.3,5.2
	c-0.6-0.2-1.7,0.1-2.4,0.5c-3.4,1.9-6.8,3.7-10,5.9c-1.1,0.8-2.1,2.2-2.5,3.6c-1.5,5.4-1.4,5.5-7,5.5c-2,0-4-0.1-6,0
	c-2.6,0.1-4.3-0.8-4.6-3.5c-0.4-3.5-1.9-5.6-5.5-6.7c-2.3-0.7-4.5-2.2-6.3-3.9c-1.8-1.6-3.3-1.6-5.4-1c-5.3,1.6-5.4,1.5-8.2-3.3
	c-1-1.7-1.9-3.5-3-5.2c-1.4-2.2-1.2-4.3,0.9-5.7c3.1-2.1,3.6-4.6,2.8-8.1c-0.6-2.4-0.1-5.2,0.3-7.7c0.3-1.9,0-3.1-1.4-4.4
	c-4.5-4.1-4.4-4.1-1.4-9.4c1-1.8,2-3.7,3.2-5.4C105.9,55.9,107.1,55.4,107.7,54.9z M110.1,99.7c0.8-0.2,1.8-0.2,2.5-0.6
	c2.9-1.7,4.7-0.3,7.1,1.5c3.2,2.5,6.8,4.4,10.5,5.9c2.5,1,4.2,2,4.3,4.9c0.1,1.8,0.6,3.3,3.2,3.3c2.7,0,2.9-1.6,3.1-3.4
	c0.2-2.7,1.6-3.9,4.2-4.7c2.9-0.9,5.9-2.1,8.2-4c3.7-3.1,7-6.3,11.9-2.7c3.1-4.1,2.9-4-0.2-7.2c-0.9-0.9-1.7-2.9-1.4-4.1
	c1.2-5.2,1.1-10.2,0-15.4c-0.3-1.2,0.4-3,1.2-3.9c3.4-3.3,3.5-3.2,0.5-7.1c-0.7,0.2-1.6,0.2-2.2,0.6c-3.1,1.9-5.1,0.3-7.6-1.6
	c-3.2-2.4-6.9-4.3-10.6-5.9c-2.2-0.9-3.8-1.7-4-4.4c-0.1-1.9-0.4-3.6-3.3-3.5c-2.7,0.1-2.9,1.6-3.1,3.4c-0.2,2.6-1.6,3.6-4,4.5
	c-3.3,1.2-7,2.5-9.4,4.9c-3.4,3.3-6.6,4.3-10.7,2.1c-0.1-0.1-0.4,0.1-0.6,0.1c-2.5,3.6-2.5,3.7,0.6,6.6c1.6,1.5,1.6,3.1,1.4,5.1
	c-0.3,4.5-0.3,9.1,0,13.6c0.1,2.1,0.4,4-1.6,5.3C107.1,95,107.5,97.2,110.1,99.7z"/>
<path fill="#FFFFFF" d="M54.1,115.1c1,0.2,1.4,0.2,1.7,0.3c4,2.1,7.4,0.9,10.4-2c0.5-0.5,1.1-0.9,1.8-1.1c4.4-1.5,7.7-3.7,8.1-8.9
	c0.1-0.8,1.9-2.1,3-2.2c3.3-0.3,6.6-0.1,9.9-0.1c2.6,0,3.6,1.7,3.8,3.8c0.3,3.4,1.9,5.3,5.2,6.3c2.1,0.7,4.3,1.9,5.9,3.4
	c2.2,2.1,4.3,2.2,7,1.3c4.1-1.4,4.6-1.1,6.7,2.6c1.1,2,2.2,4,3.4,5.9c1.5,2.3,1.3,4.3-0.9,6c-2.6,2-3.8,4.1-2.8,7.6
	c0.7,2.5,0.2,5.3-0.2,8c-0.3,2-0.1,3.3,1.5,4.7c4.3,3.7,4.3,4,1.5,8.9c-0.4,0.7-0.8,1.4-1.2,2.1c-3.5,6.1-3.5,6-10.4,4.4
	c-1-0.2-2.2,0.2-3.1,0.7c-2.7,1.5-5.1,3.6-7.9,4.7c-2.8,1.1-4,2.6-4.6,5.5c-0.8,4.1-1.4,4.5-5.6,4.5c-2.4,0-4.8,0-7.2,0
	c-2.6,0-4.2-1.2-4.5-3.8c-0.3-3.2-1.6-5.3-5.1-6.4c-2.5-0.8-4.8-2.5-6.9-4.1c-1.6-1.2-2.9-1.6-4.8-1c-5.7,1.8-5.8,1.7-8.8-3.6
	c-0.9-1.6-1.7-3.2-2.7-4.7c-1.6-2.4-1.2-4.4,1-6c2.7-2,3.7-4.2,2.8-7.6c-0.6-2.3-0.5-5,0.1-7.4c0.6-2.5-0.1-4-1.9-5.6
	c-3.9-3.6-3.8-3.6-1.1-8.3c1.1-2,2.2-4.1,3.5-5.9C52.3,116.3,53.4,115.7,54.1,115.1z M114.5,127.1c-3-5.2-1.6-4.8-6.8-3.3
	c-1.2,0.3-3.1,0-4-0.7c-3.9-3.6-8.1-6.3-13.3-7.6c-1.8-0.4-2.7-1.5-3-3.6c-0.6-4.4-1.1-4.6-5.8-3.6c-0.3,1.2-0.3,2.6-0.9,3.7
	c-0.7,1.3-1.6,3-2.8,3.3c-5.1,1.5-9.5,4-13.3,7.7c-0.9,0.8-2.8,1.2-3.9,0.9c-4.5-1.3-4.5-1.4-6.9,3.3c0.5,0.4,1.2,0.8,1.8,1.3
	c2.7,1.9,3.2,4.2,2.4,7.5c-0.8,3.1-1.1,6.7-0.2,9.7c1.3,4.5,0.3,7.5-3.3,10c-0.2,0.1-0.3,0.5-0.4,0.7c2.2,4.2,2.2,4.3,6.2,2.7
	c2.2-0.9,3.5,0.1,5.1,1.3c2.8,2.1,5.6,4.8,8.9,5.8c4.5,1.4,7.2,3.4,7.4,8.2c0,0.2,0.2,0.3,0.3,0.4c4.7,0.5,4.6,0.5,5.7-3.9
	c0.3-1.3,1.6-2.8,2.8-3.2c5.1-1.5,9.4-4.1,13.3-7.7c0.9-0.8,2.8-1.1,4-0.8c4.7,1.3,4,2.1,6.7-3.5c-0.6-0.4-1.3-1-2-1.5
	c-2.9-1.5-2.8-3.7-2.2-6.6c0.6-3,1.1-6.2,0.5-9.2C109.7,133.6,109,129.4,114.5,127.1z"/>
<path fill="#FFFFFF" d="M131.2,131.9c0.9,0.2,1.3,0.2,1.6,0.4c4,2,7.3,0.9,10.4-1.9c1.2-1.1,2.8-2,4.4-2.4c3.2-0.8,4.5-2.8,4.9-5.8
	c0.3-3.2,2.1-4.4,5.3-4.2c2.6,0.2,5.2,0.1,7.8,0c2.2,0,3.7,0.9,4,3.2c0.4,3.8,2.2,6.2,6.1,7.3c2.2,0.6,4.2,2.3,6,3.8
	c1.6,1.3,2.9,1.6,4.9,0.9c5.7-1.8,5.7-1.7,8.7,3.5c0.9,1.6,1.7,3.2,2.7,4.6c1.6,2.4,1.4,4.6-0.9,6.2c-2.8,2-3.5,4.2-2.6,7.6
	c0.6,2.5,0.1,5.3-0.3,8c-0.3,1.8-0.1,3.1,1.4,4.4c4.5,4.1,4.5,4.2,1.4,9.5c-0.1,0.3-0.3,0.5-0.4,0.8c-3.8,6.6-3.8,6.6-11.3,5.2
	c-0.8-0.2-1.8,0.3-2.6,0.8c-3.3,1.8-6.4,4-9.8,5.5c-2,0.9-2.1,2.5-2.5,4c-1.3,5.2-1.5,5.3-6.9,5.3c-0.6,0-1.2,0-1.8,0
	c-7.5-0.1-8.3,0.8-9.7-7c-0.1-0.8-1.2-1.6-2.1-2.1c-2.8-1.7-6-2.9-8.5-4.8c-2-1.5-3.6-1.8-5.9-1.1c-5,1.6-5.2,1.4-7.8-3.1
	c-1-1.8-2-3.7-3.1-5.4c-1.5-2.2-1.3-4.3,0.8-5.7c3.2-2.2,3.6-4.8,2.8-8.4c-0.5-2.5,0.3-5.3,0.3-8c0-1.2-0.3-2.7-1.1-3.5
	c-4.6-4.6-4.7-4.6-1.4-10.2c1-1.7,1.9-3.5,3-5.1C129.4,133,130.5,132.4,131.2,131.9z M131,172.5c2.1,4.7,2.1,4.8,6.4,3.2
	c2.1-0.8,3.3,0.1,4.8,1.2c2.8,2.1,5.6,4.8,8.9,5.8c4.5,1.4,7.3,3.5,7.6,8.4c0,0.1,0.2,0.3,0.4,0.4c4.6,0.4,4.8,0.4,5.3-3.3
	c0.3-2.7,1.9-3.4,4-4.4c3.9-1.8,7.8-3.9,11.3-6.5c2.1-1.5,3.6-2.5,6.1-1.3c1.5,0.7,3.1,1.5,4.5-0.9c1.3-2.3,0.5-3.5-1.2-4.6
	c-2.2-1.4-2.2-3.2-1.9-5.6c0.5-4.3,0.6-8.7,0.1-13c-0.4-2.8-0.4-4.8,2.2-6.3c1.7-1,1.9-2.2,0.9-4.2c-1.3-2.7-3.1-1.8-4.7-1
	c-2.4,1.3-3.9,0.3-5.8-1.2c-3.1-2.4-6.5-4.7-10.1-6.1c-3.2-1.2-5.5-2.4-5.6-6.1c0-1.7-0.9-2.2-2.7-2.4c-2.7-0.3-3.2,1.3-3.4,3.3
	c-0.2,2.6-1.6,3.9-4.1,4.7c-2.9,0.9-5.9,2.1-8.2,4c-3.7,3-7,6.4-12.1,2.5c-1,1.8-1.8,3.1-2.6,4.6c0.7,0.6,1.1,1,1.6,1.3
	c2.9,1.9,3.5,4.3,2.6,7.7c-0.7,2.7-0.9,5.8-0.3,8.6C135.6,165.9,136.1,170.1,131,172.5z"/>
<path fill="#FFFFFF" d="M137.7,97.7c-9.3,0-16.7-7.5-16.7-16.7c0-9.2,7.5-16.7,16.8-16.7c9.2,0,16.8,7.5,16.7,16.7
	C154.5,90.3,146.9,97.7,137.7,97.7z M137.8,71.1c-5.7,0-10.1,4.4-10.1,10c0,5.5,4.6,10,10.2,10c5.4,0,9.9-4.4,10-9.9
	C147.9,75.6,143.4,71.1,137.8,71.1z"/>
<path fill="#FFFFFF" d="M100.8,141.3c0,9.3-7.4,16.7-16.6,16.8c-9.3,0-16.7-7.4-16.7-16.7c0-9.2,7.5-16.8,16.7-16.8
	C93.2,124.6,100.8,132.1,100.8,141.3z M74.2,141c-0.1,5.7,4,10.2,9.7,10.4c5.5,0.2,10.2-4.3,10.3-9.8c0.1-5.6-4.2-10.1-9.9-10.2
	C78.7,131.3,74.3,135.5,74.2,141z"/>
<path fill="#FFFFFF" d="M161.1,174.8c-9.2,0-16.8-7.6-16.7-16.8c0.1-9.2,7.7-16.7,16.8-16.7c9.1,0,16.7,7.6,16.7,16.8
	C177.9,167.4,170.4,174.8,161.1,174.8z M161.3,148.1c-5.7-0.1-10.1,4.3-10.1,10c0,5.5,4.3,9.9,9.8,10c5.5,0.1,10.2-4.4,10.3-9.9
	C171.3,152.7,166.9,148.2,161.3,148.1z"/>
</svg>
