<?xml version="1.0" encoding="utf-8"?>
<!-- Generator: Adobe Illustrator 18.1.1, SVG Export Plug-In . SVG Version: 6.00 Build 0)  -->
<svg version="1.1" id="Layer_1" xmlns="http://www.w3.org/2000/svg" xmlns:xlink="http://www.w3.org/1999/xlink" x="0px" y="0px"
	 viewBox="0 0 250 250" enable-background="new 0 0 250 250" xml:space="preserve">
<image overflow="visible" width="482" height="376" xlink:href="F80193.jpg"  transform="matrix(0.9999 0 0 0.9999 -8067 -8067)">
</image>
<g id="Layer_2" display="none">
	<rect display="inline" fill="#2DCC70" width="250" height="250"/>
</g>
<path fill="#FFFFFF" d="M18.9,140.9c-0.1-1.5-0.2-2.8-0.2-4.2c0-19.2-0.1-38.4,0-57.6c0.1-11.9,6.5-20.3,17.6-23.1
	c1.8-0.5,3.7-0.6,5.6-0.6c56.4,0,112.9,0,169.3,0c12.6,0,22.8,9.4,23,21.9c0.4,20.8,0.1,41.7,0,62.5c0,0.2-0.2,0.5-0.4,1
	C162.4,140.9,90.9,140.9,18.9,140.9z M194,97.8c0.6,0.4,1,0.7,1.5,1c5.6,3.1,11.3,2.2,15.3-2.4c3.7-4.2,3.9-10.1,0.6-14.5
	c-3.8-4.9-9.6-6-15.6-3.3c-1.2,0.6-3.2,0.2-4.5-0.4c-4.8-2-10.4-1.2-13.8,2.4c-3.4,3.5-4.2,9.2-2.1,13.5
	C178.7,100.8,185.9,102.3,194,97.8z M40.4,96.4c31.1,0,62,0,92.8,0c0-1.8,0-3.2,0-4.7c-31.1,0-61.8,0-92.8,0
	C40.4,93.4,40.4,94.9,40.4,96.4z M133.3,80.4c-31.1,0-61.9,0-92.9,0c0,1.7,0,3.1,0,4.7c31,0,61.9,0,92.9,0
	C133.3,83.6,133.3,82.2,133.3,80.4z"/>
<path fill="#FFFFFF" d="M18.7,157.1c71.8,0,143.3,0,214.9,0c3.6,13.3,0,27.4-9.3,33.3c-3.6,2.3-8.2,4-12.4,4.1
	c-57.1,0.3-114.2,0.2-171.3,0.2c-11.2,0-20.8-8.8-21.8-20C18.3,168.8,18.7,163,18.7,157.1z"/>
</svg>
