<?xml version="1.0" encoding="utf-8"?>
<!-- Generator: Adobe Illustrator 18.1.1, SVG Export Plug-In . SVG Version: 6.00 Build 0)  -->
<svg version="1.1" id="Layer_1" xmlns="http://www.w3.org/2000/svg" xmlns:xlink="http://www.w3.org/1999/xlink" x="0px" y="0px"
	 viewBox="0 0 250 250" enable-background="new 0 0 250 250" xml:space="preserve">
<g id="Layer_2" display="none">
	<rect display="inline" fill="#2DCC70" width="250" height="250"/>
</g>
<path fill="#FFFFFF" d="M88,184.3c0-21.4,0-42.7,0-63.9c3.6-0.4,7.1-0.7,10.5-1.3c7-1.2,12.8-4.7,17.3-10.2c1.6-1.9,3.1-3.8,4.8-5.6
	c2.5-2.8,5.6-4.4,9.4-4.6c0.3,0,0.5-0.1,1-0.2c-0.8-3.3-1.6-6.6-2.4-9.8c-2.7-11.2-5.5-22.4-8.2-33.6c-0.6-2.4,0.2-3.7,2.7-4.3
	c5.2-1.3,10.4-2.6,15.6-3.8c16.9-3.7,33.5-1.8,49.9,2.8c1.3,0.4,2.7,0.7,4,1.2c2,0.7,2.7,1.9,2.2,3.9c-3,12.1-6,24.2-8.9,36.3
	c-1.3,5.5-2.3,11.1-3.5,16.7c-0.1,0.4,0,0.9,0,1.4c6.8,1,11.5,4.5,12.6,11.6c0.8,5-1.6,8.7-8.4,13.3c5.2,2.3,8.8,6,8.4,12
	c-0.5,6.2-4.7,9.4-10.5,11.1c4.5,3.7,6.6,8.2,4.4,13.8c-1.9,4.9-5.6,6.9-14.6,8c0.3,0.3,0.4,0.5,0.7,0.7c7.3,6.5,4.3,16.9-4.8,19.8
	c-1.3,0.4-2.7,0.7-4.1,0.7c-7.7,0-15.4,0-23.1-0.3c-8.6-0.3-16.7-2.4-24.5-6c-6.3-2.9-12.3-6.3-19.1-7.8c-3.2-0.7-6.5-1.1-9.7-1.7
	C89,184.5,88.6,184.4,88,184.3z M132.1,67.9c0.5,2.6,1,5,1.4,7.4c2,10.2,3.9,20.3,5.9,30.5c0.1,0.6,0.7,1.3,1.3,1.5
	c1.8,0.6,3.7,1.3,5.6,1.4c9.2,0.4,18.5,0.5,27.7,0.7c0.4,0,1.1-0.7,1.2-1.1c1.9-9.9,3.7-19.8,5.6-29.7c0.7-3.5,1.4-7.1,2.1-10.6
	c-0.9-0.2-1.6-0.4-2.3-0.6c-5.1-1.4-8.2-4.7-8.6-9.6c-0.1-1.3-0.6-1.7-1.7-1.9c-8.6-2-17.1-1.7-25.7,0.1c-1.1,0.2-1.4,0.6-1.6,1.7
	c-0.6,5.2-3.8,8.7-8.8,9.9C133.6,67.5,132.9,67.7,132.1,67.9z"/>
<path fill="#FFFFFF" d="M82.4,154.8c0,11.6,0,23.2,0,34.8c0,3.6-1.7,5.3-5.3,5.3c-5.4,0-10.8,0-16.2,0c-3.3,0-5.1-1.8-5.1-5.1
	c0-23.3,0-46.6,0-70c0-3.5,1.7-5.2,5.3-5.2c5.5,0,10.9,0,16.4,0c3.2,0,5,1.8,5,5C82.4,131.4,82.4,143.1,82.4,154.8z"/>
<path fill="#FFFFFF" d="M157.5,77.2c3.8,0.2,7.2,1.1,10,3.5c3.8,3.4,4.3,8.1,1.3,12.3c-5.2,7.1-17.1,7.3-22.5,0.3
	c-3.4-4.4-2.7-9.7,1.7-13.1C150.9,78,154.2,77.3,157.5,77.2z"/>
</svg>
