<?xml version="1.0" encoding="utf-8"?>
<!-- Generator: Adobe Illustrator 18.1.1, SVG Export Plug-In . SVG Version: 6.00 Build 0)  -->
<svg version="1.1" id="Layer_1" xmlns="http://www.w3.org/2000/svg" xmlns:xlink="http://www.w3.org/1999/xlink" x="0px" y="0px"
	 viewBox="0 0 250 250" enable-background="new 0 0 250 250" xml:space="preserve">
<image overflow="visible" width="482" height="376" xlink:href="145765CD.jpg"  transform="matrix(0.9999 0 0 0.9999 -8067 -8067)">
</image>
<g id="Layer_2" display="none">
	<rect display="inline" fill="#2DCC70" width="250" height="250"/>
</g>
<path fill="#FFFFFF" d="M169.1,100.5c-3.2-4.8-6.4-9.4-9.5-14.1c-0.3-0.4-0.7-0.8-0.8-1.2c-0.2-0.9-0.6-2.1-0.2-2.8
	c0.3-0.6,1.7-0.9,2.5-0.8c3.3,0.5,6.5,1.2,9.7,1.8c9.9,1.9,19.8,3.8,29.7,5.8c2.1,0.4,2.6,1.2,2.2,3.3c-2.5,13-5,26-7.5,38.9
	c-0.2,1.1-0.5,2.1-1.8,2.4c-1.3,0.3-2.1-0.6-2.7-1.6c-2.7-3.9-5.3-7.9-8-11.8c-0.3-0.4-0.6-0.8-0.9-1.2c-0.5,0.4-1,0.7-1.5,1
	c-15.5,11-31,22.1-46.5,33.1c-2.3,1.6-2.9,1.6-4.8-0.5c-9-9.7-17.9-19.4-26.8-29.1c-0.9-0.9-1.4-0.9-2.4-0.2
	c-16,10.6-32,21.2-48,31.8c-0.5,0.3-0.9,0.8-1.4,0.8c-0.9,0-2-0.1-2.6-0.6c-0.8-0.7-0.6-1.8,0.1-2.6c0.3-0.4,0.7-0.7,1-1
	c18.8-18.7,37.7-37.4,56.5-56.1c2-2,2.8-2,4.8,0.1c7.7,8.2,15.4,16.4,23,24.6c0.7,0.7,1.1,1.1,2.1,0.5c10.9-6.7,21.9-13.3,32.8-19.9
	C168.5,101,168.7,100.8,169.1,100.5z"/>
<path fill="#FFFFFF" d="M135,116.5c-4.4-4.8-8.7-9.5-12.9-14.1c-0.3-0.4-0.5-1.1-0.5-1.6c-0.1-2.4-0.1-4.8,0-7.1
	c0-1.3-0.3-1.9-1.6-2.3c-2.2-0.7-4.4-1.5-6.5-2.5c-6.7-3.2-9.6-8.7-9.3-16c0.3-6.9,3.3-12.1,9.8-15c2-0.9,4.2-1.4,6.3-1.9
	c1.1-0.2,1.3-0.6,1.3-1.6c0-1.2,0-2.5,0-3.7c0.1-2,1.7-3.5,3.6-3.5c1.9,0,3.5,1.5,3.6,3.5c0.1,1.2,0.1,2.4,0,3.6
	c-0.1,1.1,0.2,1.6,1.5,1.8c7.1,0.9,12.2,4.8,14.9,11.4c0.6,1.4,0.8,3.2,0.6,4.7c-0.4,2.9-2.9,4.8-5.8,5c-2.8,0.2-5.2-1.4-6.3-4.2
	c-0.6-1.4-1-2.9-1.9-4.1c-0.6-0.9-1.7-1.6-2.5-2.3c-0.1,0.1-0.3,0.2-0.4,0.2c0,0.6-0.1,1.2-0.1,1.8c0,3.6,0,7.2,0,10.9
	c0,1.1,0.4,1.6,1.5,1.9c1.9,0.5,3.7,1.1,5.6,1.8c12,4.3,14.9,17.3,9.3,26.8c-0.2,0.4-0.6,0.8-1,1.1
	C141.1,112.8,138.1,114.6,135,116.5z M128.9,108.9c3.8-0.6,6.5-3.8,6.5-7.5c0-3.6-2.6-6.3-6.5-6.9C128.9,99.2,128.9,104,128.9,108.9
	z M121.4,66.5c-3.5,1-5,2.9-4.8,6.5c0.1,2.8,1.9,4.9,4.8,5.4C121.4,74.4,121.4,70.5,121.4,66.5z"/>
<path fill="#FFFFFF" d="M200.1,170.7c0,9.5,0,19,0,28.5c0,2.8-0.7,3.5-3.6,3.5c-4.2,0-8.3,0-12.5,0c-2.3,0-3.1-0.8-3.1-3.1
	c0-19.2,0-38.4,0-57.6c0-2.6,0.8-3.4,3.4-3.4c4.2,0,8.4,0,12.7,0c2.3,0,3.1,0.9,3.1,3.1C200.1,151.5,200.1,161.1,200.1,170.7z"/>
<path fill="#FFFFFF" d="M93.3,175c0,8.2,0,16.3,0,24.5c0,2.5-0.8,3.3-3.3,3.3c-4.2,0-8.3,0-12.5,0c-2.6,0-3.5-0.8-3.5-3.5
	c0-11.5,0-22.9,0-34.4c0-4.7,0-9.4,0-14.1c0-2.8,0.7-3.5,3.4-3.5c4.2,0,8.4,0,12.7,0c2.4,0,3.2,0.8,3.2,3.2
	C93.3,158.7,93.3,166.9,93.3,175z"/>
<path fill="#FFFFFF" d="M173.4,176c0,7.8,0,15.7,0,23.5c0,2.4-0.9,3.3-3.3,3.3c-4.2,0-8.4,0-12.7,0c-2.4,0-3.3-0.9-3.3-3.3
	c0-15.7,0-31.4,0-47c0-2.4,0.9-3.3,3.2-3.3c4.3,0,8.7,0,13,0c2.2,0,3.1,0.9,3.1,3.2C173.4,160.2,173.4,168.1,173.4,176z"/>
<path fill="#FFFFFF" d="M100.8,176c0-7.8,0-15.6,0-23.4c0-2.8,0.8-3.5,3.6-3.5c4.1,0,8.2,0,12.3,0c2.5,0,3.3,0.9,3.3,3.3
	c0,15.6,0,31.1,0,46.7c0,3-0.7,3.7-3.7,3.7c-4.1,0-8.2,0-12.3,0c-2.3,0-3.1-0.8-3.1-3.1C100.8,191.8,100.8,183.9,100.8,176
	C100.8,176,100.8,176,100.8,176z"/>
<path fill="#FFFFFF" d="M146.8,181.4c0,6,0,12,0,18c0,2.6-0.9,3.4-3.4,3.4c-4.2,0-8.4,0-12.7,0c-2.4,0-3.3-0.9-3.3-3.2
	c0-12.1,0-24.2,0-36.3c0-2.4,0.8-3.2,3.2-3.2c4.3,0,8.7,0,13,0c2.3,0,3.1,0.8,3.1,3.1C146.8,169.2,146.8,175.3,146.8,181.4z"/>
<path fill="#FFFFFF" d="M47.3,184.5c0-4.9,0-9.7,0-14.6c0-2.5,0.9-3.3,3.3-3.3c4.3,0,8.5,0,12.8,0c2.3,0,3.2,0.9,3.2,3.3
	c0,9.8,0,19.7,0,29.5c0,2.5-0.9,3.4-3.4,3.4c-4.3,0-8.5,0-12.8,0c-2.2,0-3.1-1-3.1-3.2C47.3,194.6,47.3,189.6,47.3,184.5
	C47.3,184.5,47.3,184.5,47.3,184.5z"/>
</svg>
