<?xml version="1.0" encoding="utf-8"?>
<!-- Generator: Adobe Illustrator 18.1.1, SVG Export Plug-In . SVG Version: 6.00 Build 0)  -->
<svg version="1.1" xmlns="http://www.w3.org/2000/svg" xmlns:xlink="http://www.w3.org/1999/xlink" x="0px" y="0px"
	 viewBox="0 0 250 250" enable-background="new 0 0 250 250" xml:space="preserve">
<g id="Layer_2_1_" display="none">
	<rect x="0.8" display="inline" stroke="#000000" stroke-miterlimit="10" width="249.3" height="250"/>
</g>
<g id="Layer_1">
	<g id="Layer_2" display="none">
		<rect display="inline" fill="#2DCC70" width="250" height="250"/>
	</g>
	<path fill="none" stroke="#FFFFFF" stroke-width="4" stroke-miterlimit="10" d="M150.8,120.5c-3.8-14.7-7.6-29.4-11.4-44.2
		c7,0,13.8,0,20.7,0c1.1,0,1.2,0.8,1.3,1.4c1,3.7,1.9,7.4,2.9,11.1c1.5,5.7,2.9,11.4,4.4,17c1.3,4.9,2.5,9.8,3.8,14.7
		c2.5,0,4.9,0,7.2,0c13.5,0,26.9,0,40.4,0c1.5,0,2,0.4,2,1.9c-0.1,5.8,0,11.5,0,17.3c0,1.4-0.5,1.7-1.8,1.7c-13.5,0-27,0-40.6,0
		c-0.6,0-1.1,0-1.9,0c4.9,19,9.8,37.8,14.6,56.8c-7.3,0-14.4,0-21.7,0c-1.6-6.3-3.1-12.5-4.7-18.8c-1.4-5.5-2.9-10.9-4.3-16.4
		c-1.7-6.5-3.4-13.1-5-19.6c-0.4-1.5-1-2-2.5-2c-17.9,0.1-35.7,0-53.6,0c-0.3,0-0.7,0-1.1,0c-4.9,18.9-9.7,37.8-14.6,56.8
		c-7.1,0-14.3,0-21.7,0c4.9-18.9,9.7-37.7,14.6-56.7c-0.5,0-0.9-0.1-1.4-0.1c-13.5,0-27,0-40.6,0c-2.3,0-2.3,0-2.3-2.3
		c0-5.8,0.1-11.6,0.1-17.4c0-0.3,0.1-0.7,0.1-1.2c16.4,0,32.8,0,49.4,0c3.8-14.8,7.6-29.5,11.4-44.3c7.1,0,14.2,0,21.7,0
		c-3.8,14.8-7.6,29.4-11.3,44.1C120.2,120.5,135.4,120.5,150.8,120.5z M100.8,123.7c3.8-14.8,7.6-29.4,11.3-44.1
		c-5.2,0-10.2,0-15.2,0c0,0.3-0.1,0.4-0.1,0.6c-2.1,8-4.2,16.1-6.3,24.1c-1.5,5.8-3,11.6-4.3,17.5c-0.4,1.6-1.1,2-2.6,2
		c-14.9,0-29.8,0-44.7,0c-0.6,0-1.2,0-1.9,0c0,5,0,9.8,0,14.7c15,0,29.9,0,44.8,0c-4.9,19-9.7,37.7-14.6,56.7c5.1,0,10.1,0,15.2,0
		c4.9-18.9,9.7-37.8,14.6-56.8c20.5,0,41,0,61.6,0c4.9,19,9.8,37.9,14.6,56.7c5.1,0,10.1,0,15.1,0c-4.9-18.9-9.7-37.7-14.6-56.7
		c15,0,29.9,0,44.9,0c0-4.9,0-9.7,0-14.6c-0.8,0-1.6,0-2.3,0c-14.9,0-29.7,0-44.6,0c-0.9,0-1.8,0.1-2.1-1.2
		c-2.3-9.1-4.7-18.2-7-27.3c-1.3-5.3-2.7-10.5-4-15.7c-5.2,0-10.1,0-15.2,0c3.8,14.7,7.6,29.4,11.3,44.1
		C136.7,123.7,119,123.7,100.8,123.7z"/>
	<path fill="none" stroke="#FFFFFF" stroke-width="4" stroke-miterlimit="10" d="M71.8,67.1c0-7.5,0-14.8,0-22.3
		c37.3,0,74.6,0,112,0c0,7.4,0,14.8,0,22.3C146.5,67.1,109.2,67.1,71.8,67.1z M74.9,64c35.4,0,70.6,0,105.7,0c0-5.5,0-10.9,0-16.2
		c-35.3,0-70.5,0-105.7,0C74.9,53.3,74.9,58.6,74.9,64z"/>
	<path fill="none" stroke="#FFFFFF" stroke-width="4" stroke-miterlimit="10" d="M191.3,93.6c9.4,0,18.6,0,28,0c0,4.6,0,9.1,0,13.7
		c-9.3,0-18.6,0-28,0C191.3,102.8,191.3,98.3,191.3,93.6z M216.2,97.1c-7.4,0-14.6,0-21.8,0c0,2.4,0,4.8,0,7.2c7.3,0,14.5,0,21.8,0
		C216.2,101.8,216.2,99.5,216.2,97.1z"/>
	<path fill="none" stroke="#FFFFFF" stroke-width="4" stroke-miterlimit="10" d="M64.5,93.6c0,4.6,0,9.1,0,13.7
		c-9.4,0-18.7,0-28.1,0c0-4.5,0-9,0-13.7C45.7,93.6,55.1,93.6,64.5,93.6z M39.3,104.2c7.3,0,14.4,0,21.5,0c0-2.6,0-5,0-7.4
		c-7.2,0-14.3,0-21.5,0C39.3,99.3,39.3,101.7,39.3,104.2z"/>
</g>
</svg>
