<?xml version="1.0" encoding="utf-8"?>
<!-- Generator: Adobe Illustrator 18.1.1, SVG Export Plug-In . SVG Version: 6.00 Build 0)  -->
<svg version="1.1" id="Layer_1" xmlns="http://www.w3.org/2000/svg" xmlns:xlink="http://www.w3.org/1999/xlink" x="0px" y="0px"
	 viewBox="0 0 250 250" enable-background="new 0 0 250 250" xml:space="preserve">
<g id="Layer_2" display="none">
	<rect display="inline" fill="#2DCC70" width="250" height="250"/>
</g>
<g>
	<g>
		<circle fill="#FFFFFF" cx="176.5" cy="121.9" r="6.1"/>
		<path fill="#FFFFFF" d="M194.8,97.6h-12.1V55.2c0-6.6-5.5-12.1-12.1-12.1h-91c-6.6,0-12.1,5.5-12.1,12.1v42.4H55.2
			c-10.3,0-18.2,7.9-18.2,18.2v54.6c0,10.3,7.9,18.2,18.2,18.2h12.1v6.1c0,6.6,5.5,12.1,12.1,12.1h91c6.6,0,12.1-5.5,12.1-12.1v-6.1
			h12.1c10.3,0,18.2-7.9,18.2-18.2v-54.6C212.9,105.6,205,97.6,194.8,97.6z M73.4,55.2c0-3.1,2.4-6.1,6.1-6.1h91
			c3.1,0,6.1,2.4,6.1,6.1v42.4H73.4V55.2z M176.5,194.7c0,3.1-2.4,6.1-6.1,6.1H79.5c-3.1,0-6.1-2.4-6.1-6.1v-42.5h103.1V194.7z
			 M206.9,170.5c0,6.6-5.5,12.1-12.1,12.1h-12.1v-36.4H67.4v36.4H55.2c-6.6,0-12.1-5.5-12.1-12.1v-54.6c0-6.6,5.5-12.1,12.1-12.1
			h139.5c6.6,0,12.1,5.5,12.1,12.1L206.9,170.5L206.9,170.5z"/>
	</g>
</g>
</svg>
