<?xml version="1.0" encoding="utf-8"?>
<!-- Generator: Adobe Illustrator 18.1.1, SVG Export Plug-In . SVG Version: 6.00 Build 0)  -->
<svg version="1.1" id="Layer_1" xmlns="http://www.w3.org/2000/svg" xmlns:xlink="http://www.w3.org/1999/xlink" x="0px" y="0px"
	 viewBox="0 0 250 250" enable-background="new 0 0 250 250" xml:space="preserve">
<g id="Layer_2" display="none">
	<rect display="inline" fill="#2DCC70" width="250" height="250"/>
</g>
<path fill="#FFFFFF" d="M23.3,224c11.6-41.2,23.2-82.4,34.7-123.7c1.5-5.2,4.3-9.2,8.8-11.9c3.8-2.2,7.9-3.9,11.9-5.7
	c2.8-1.3,5.7-2.3,8.6-3.4c1.5-0.6,2.3-1.7,2.8-3.4c3.4-12.3,6.8-24.5,10.3-36.8c0.1-0.5,0.3-1,0.5-1.6c7.6,2.1,15.2,4.3,22.9,6.4
	c-0.1,0.6-0.2,1.2-0.4,1.9c-3.5,12.3-7,24.6-10.4,37c-0.3,1.2,0,2.8,0.7,3.9c2,3,4.4,5.7,6.4,8.7c2.6,4,5.2,8,7.3,12.3
	c1.8,3.6,1.6,7.6,0.5,11.6c-11.7,41.4-23.3,82.9-35,124.3C69.8,237.1,46.5,230.6,23.3,224z"/>
<path fill="#FFFFFF" d="M133.8,20.2c-1.5,5.1-3,10.1-4.5,15.2c-0.2,0.8-0.5,1.7-0.7,2.6c-9.6-2.7-19-5.3-28.7-8.1
	c1.7-6.1,3.4-12,5-17.9C114.6,14.8,124.2,17.5,133.8,20.2z"/>
<path fill="#FFFFFF" d="M182.7,43.7c2.8,0.6,5.7,1,8.4,1.9c14.3,4.8,22.4,15,25.6,29.4c0.6,2.7,0.8,5.4,1.2,8.3c-9,0-17.7,0-26.5,0
	c-0.1-0.7-0.2-1.5-0.4-2.3c-1.9-9.9-8.6-12.3-17.7-9.9c-9.3,2.4-10.8,13.2-4.8,19.3c2.8,2.9,6.3,4.6,10.1,5.8
	c6,1.9,12.1,3.5,17.7,6.8c10.5,6.2,17.8,14.8,20.7,26.8c1.9,7.9,0.3,15.4-2.5,22.8c-1.7,4.3-4,8.2-7.3,11.6c1.5,2,3,3.8,4.3,5.8
	c10.5,16,7.9,36.7-6.5,49.3c-6.3,5.5-13.9,8.2-22.1,9.4c-0.6,0.1-1.1,0.2-1.7,0.4c-2.5,0-5.1,0-7.6,0c-2.1-0.4-4.3-0.7-6.3-1.3
	c-15.4-4.3-24.3-14.7-27.6-30.1c-0.6-2.6-0.8-5.3-1.2-8.2c9,0,17.7,0,26.5,0c0.2,1,0.4,2.2,0.7,3.3c2.1,7.6,5.7,10.3,14.1,9.5
	c2.2-0.2,4.3-1.1,6.3-2c6.1-2.8,7.4-12.4,1.8-18c-2.9-2.9-6.3-4.6-10.1-5.8c-6.1-1.9-12.3-3.5-17.8-6.8
	c-10.4-6.2-17.7-14.8-20.5-26.7c-1.9-7.9-0.3-15.4,2.5-22.8c1.7-4.3,4-8.2,7.3-11.6c-1.5-2-3-3.8-4.3-5.8
	c-10.5-16.1-7.9-36.6,6.5-49.3c6.3-5.5,13.9-8.2,22.1-9.4c0.6-0.1,1.1-0.2,1.7-0.4C177.7,43.7,180.2,43.7,182.7,43.7z M176.6,123.3
	c-8.1-0.1-14,9-10.9,15.9c2.4,5.2,6.9,7.8,12,9.6c3.3,1.1,6.3,0.4,8.8-1.7c3.7-3.1,7-11,1.8-16.8
	C185.1,126.5,180.8,124.6,176.6,123.3z"/>
</svg>
