<?xml version="1.0" encoding="utf-8"?>
<!-- Generator: Adobe Illustrator 18.1.1, SVG Export Plug-In . SVG Version: 6.00 Build 0)  -->
<svg version="1.1" id="Layer_1" xmlns="http://www.w3.org/2000/svg" xmlns:xlink="http://www.w3.org/1999/xlink" x="0px" y="0px"
	 viewBox="0 0 250 250" enable-background="new 0 0 250 250" xml:space="preserve">
<g id="Layer_2" display="none">
	<rect display="inline" fill="#2DCC70" width="250" height="250"/>
</g>
<path fill="#FFFFFF" d="M116.8,197.2c-1.4,0-2.3,0-3.2,0c-19.8,0-39.7,0-59.5,0c-4.5,0-5.4-0.9-5.4-5.5c0-43.1,0-86.2,0-129.3
	c0-4.7,0.8-5.5,5.6-5.5c4.4,0,8.9,0,13.4,0c0.2-0.6,0.4-1,0.5-1.5c1-6,4.6-9.2,10.7-9.4c2.6-0.1,5.2-0.1,7.8,0
	c1.5,0.1,2.4-0.4,2.9-2c1.7-4.4,5.2-6.7,9.8-6.9c4.4-0.2,8.3,2.4,10.1,6.9c0.7,1.5,1.5,2,3,1.9c1.8-0.1,3.5,0,5.2,0
	c8.8,0,11.7,2.3,13.7,10.9c4.6,0,9.4,0,14.1,0c4.1,0,4.9,0.9,4.9,5c0,2,0,4,0,6.1c-2.3,0-4.2,0-6,0c-0.1-0.1-0.4-0.4-0.4-0.4
	c0.3-3.3-1.3-4.3-4.4-3.9c-1.8,0.2-3.7,0.1-5.5,0.1c-1.5,0-3.2-0.2-3.2,2.2c0,0.4-1.5,1-2.3,1c-3.8,0.1-7.5,0.1-11.3,0.1
	c-15.1,0-30.2,0-45.3,0c-1.8,0-3.8,0.6-4-2.4c0-0.3-1.3-0.7-1.9-0.8c-2.8-0.1-5.6,0-8.4-0.1c-1.5-0.1-2.3,0.4-2.2,2.1
	c0.1,1.8,0,3.7,0,5.5c0,38.5,0,77.1-0.1,115.6c0,2.9,0.8,3.5,3.6,3.5c16.7-0.1,33.5,0,50.3-0.1c2.4,0,4.3,0.3,5.2,2.9
	C114.7,194.5,115.8,195.5,116.8,197.2z M99.8,51.8c2.1-0.1,3.8-2,3.8-4s-2-3.9-4-3.8c-2.1,0-4.1,2.1-4,4.2
	C95.8,50.1,97.7,51.8,99.8,51.8z"/>
<path fill="#FFFFFF" d="M213.8,137.3c0,14.4-0.4,28.7,0.1,43c0.5,13.1-9.9,22-21.8,22.1c-18.4,0.1-36.8,0.1-55.2,0
	c-11.4-0.1-22-8.4-21.9-22.1c0.4-28.7,0.4-57.3,0-86c-0.2-15,11.9-22.3,22-22.3c18.3,0,36.6-0.1,54.9,0c10.2,0.1,18.7,6.3,21.2,15
	c0.5,1.9,0.7,4,0.7,6C213.9,107.8,213.8,122.5,213.8,137.3z M207.2,137.3c0-14.4,0-28.9,0-43.3c0-9.1-6-15.2-15-15.3
	c-18.4-0.1-36.8-0.1-55.2,0c-9.3,0.1-15.1,6.2-15.1,15.4c0,28.6,0.2,57.1-0.1,85.7c-0.1,10.8,8,15.7,15.6,15.8
	c18.1,0.1,36.2,0.1,54.3,0c9.7-0.1,15.6-6.2,15.6-15.9C207.2,165.6,207.2,151.4,207.2,137.3z"/>
<path fill="#FFFFFF" d="M85.8,132.3c10.7,0.1,19.4,8.7,19.5,19.4c0.1,10.8-8.9,19.7-19.9,19.5c-10.7-0.1-19.3-8.8-19.3-19.5
	C66.2,140.9,74.9,132.2,85.8,132.3z M85.8,139.3c-6.3-0.1-11.3,3.9-12.6,9.9c-1.3,5.7,1.8,11.8,7.4,14.2c5.4,2.4,11.8,0.6,15.3-4.3
	c3.5-4.8,3.3-10.8-0.3-14.7c-3.1,2.2-6.3,4.4-9.8,6.9C85.8,147.1,85.8,143.3,85.8,139.3z"/>
<path fill="#FFFFFF" d="M111.3,115.2c-1.3,0.1-2.2,0.1-3.2,0.1c-13.9,0-27.7,0-41.6,0c-3.5,0-5.1-1-5.1-3.3c0-2.2,1.7-3.4,5.1-3.5
	c0.7,0,1.3-0.1,2-0.1c0.4-2.3,0.3-4.9,1.5-6.6c0.7-1,3.5-0.5,5.2-0.4c5.2,0.3,1.4,4.7,3.3,6.9c-0.1,0,0.2,0.1,0.4,0.1
	c7.2,0.5,7.2,0.4,7.2-6.6c0-2.1-0.1-4.3,0.1-6.4c0.1-0.8,1.3-1.4,2.1-2.1c0.1-0.1,0.2,0,0.3,0c7.5,0,6.3-0.7,6.4,6
	c0.1,2.9,0,5.8,0,9c2.7,0,5.3,0,8.3,0c0-1,0-2.1,0-3c0-7,0.1-13.9,0-20.9c0-2,0.7-2.7,2.7-2.8c6.9-0.3,6.7-0.2,5.9,6.6
	c-0.6,5.2-0.4,10.5-0.5,15.6C111.3,107.6,111.3,111.2,111.3,115.2z"/>
<path fill="#FFFFFF" d="M164.9,111.8c-9.8,0-19.6,0-29.3,0c-4.3,0-5.2-0.8-5.2-5.3c0-4.6-0.1-9.1,0-13.6c0-3.3,0.9-4.2,4.1-4.2
	c20.3,0,40.7,0,61,0c3.2,0,4.1,1,4.1,4.2c0,4.9,0,9.7,0,14.5c0,3.4-1,4.4-4.6,4.4C185,111.8,174.9,111.8,164.9,111.8z"/>
<path fill="#FFFFFF" d="M138.8,124.1c1.3,0,2.5,0,3.8,0c4.5,0,6,2,4.6,6.3c-0.2,0.7-1.3,1.5-2.1,1.6c-4.3,0.1-8.5,0.2-12.8,0
	c-0.8-0.1-2.2-1.5-2.3-2.5c-0.5-5.2-0.2-5.4,5-5.4C136.3,124.1,137.6,124.1,138.8,124.1z"/>
<path fill="#FFFFFF" d="M138.6,148.6c-1.8,0-3.7-0.1-5.5,0c-2.1,0.1-3.2-0.7-3.2-3c0-4.9,0-5,4.9-5c3.2,0,6.4,0,9.6,0
	c3.5-0.1,2.7,2.4,2.8,4.5c0.1,2.1-0.2,3.7-2.9,3.5C142.5,148.5,140.6,148.6,138.6,148.6z"/>
<path fill="#FFFFFF" d="M138.5,165.3c-1.2,0-2.4,0-3.5,0c-5.5,0.2-5.2-0.4-4.9-6.1c0-0.7,1.3-1.8,2.1-1.8c4.3-0.1,8.7-0.1,13,0
	c0.7,0,1.9,1.2,1.9,1.9c0.2,5.7,0.6,6.1-5,6C141,165.2,139.7,165.3,138.5,165.3z"/>
<path fill="#FFFFFF" d="M138.6,181.7c-1.8,0-3.7-0.1-5.5,0c-2.1,0.1-3.2-0.7-3.2-3c0-4.9,0.1-5,4.9-5c3.2,0,6.4,0,9.6,0
	c3.5-0.1,2.7,2.4,2.8,4.5c0.1,2.1-0.2,3.7-2.9,3.5C142.5,181.6,140.6,181.7,138.6,181.7z"/>
<path fill="#FFFFFF" d="M164.9,173.7c1.3,0,2.7,0,4.1,0c4.4,0,6.1,2.4,4.5,6.6c-0.2,0.7-1.4,1.3-2.2,1.3c-4.1,0.1-8.3,0.1-12.5,0.1
	c-1.7,0-2.4-0.9-2.4-2.5c-0.4-5,0-5.5,5-5.5C162.6,173.7,163.7,173.7,164.9,173.7z"/>
<path fill="#FFFFFF" d="M191.5,173.7c1.3,0,2.7,0,4.1,0c4.1,0,6,2.7,4.3,6.6c-0.3,0.7-1.5,1.3-2.2,1.3c-4.1,0.1-8.3,0.1-12.5-0.1
	c-0.8-0.1-1.9-1.3-2.3-2.1c-0.4-1-0.4-2.4,0-3.4s1.4-2.1,2.3-2.2C187.3,173.5,189.4,173.7,191.5,173.7z"/>
<path fill="#FFFFFF" d="M191.4,124.1c2.1,0,4.1,0,6.1,0c1.8,0,2.7,0.9,2.6,2.7c0,0.9,0,1.8,0,2.6c0.1,1.8-0.8,2.7-2.6,2.7
	c-4.1,0-8.1,0-12.2,0c-1.6,0-2.6-0.7-2.5-2.4c0-1,0.1-2.1,0-3.2c-0.1-1.8,0.9-2.4,2.5-2.4C187.3,124.2,189.3,124.1,191.4,124.1z"/>
<path fill="#FFFFFF" d="M191,148.6c-1.9,0-3.8,0-5.8,0c-1.7,0-2.5-0.7-2.4-2.4c0.1-1-0.3-2.2,0.1-3.2c0.4-1,1.4-2.2,2.2-2.3
	c4.1-0.2,8.3-0.2,12.5-0.1c3.5,0.1,2.3,2.9,2.5,4.8c0.1,1.9-0.4,3.2-2.7,3.2C195.3,148.5,193.2,148.6,191,148.6z"/>
<path fill="#FFFFFF" d="M165.1,124.1c2,0,4.1,0,6,0c1.7,0,2.5,0.7,2.4,2.4c-0.1,1,0.3,2.2-0.1,3.2s-1.4,2.3-2.2,2.3
	c-4.1,0.2-8.3,0.2-12.5,0.1c-3.5-0.1-2.3-2.9-2.5-4.8c-0.1-1.9,0.3-3.2,2.7-3.2C161,124.2,163,124.1,165.1,124.1z"/>
<path fill="#FFFFFF" d="M164.6,148.6c-1.8,0-3.7-0.1-5.5,0c-1.9,0.1-2.7-0.7-2.8-2.7c-0.2-4.9,0.1-5.3,5-5.3c3.2,0,6.3,0,9.6,0
	c2,0,2.9,0.9,2.7,2.8c-0.1,1,0.3,2.1-0.1,2.9c-0.4,0.9-1.4,2.1-2.2,2.2C169.1,148.8,166.8,148.6,164.6,148.6L164.6,148.6z"/>
<path fill="#FFFFFF" d="M165.1,157.2c2,0,4.1,0,6,0c1.7,0,2.5,0.7,2.4,2.4c-0.1,1,0.3,2.2-0.1,3.2c-0.4,1-1.4,2.2-2.2,2.3
	c-4.1,0.2-8.3,0.1-12.5,0.1c-3.2-0.1-2.4-2.6-2.5-4.5c-0.1-1.9,0.1-3.5,2.7-3.5C161,157.3,163.1,157.2,165.1,157.2z"/>
<path fill="#FFFFFF" d="M191.5,157.3c2,0,4.1,0,6,0c2.4,0,2.7,1.5,2.5,3.3c-0.1,1.8,0.9,4.5-2.4,4.6c-4.1,0.1-8.3,0.1-12.5,0.1
	c-1.6,0-2.5-0.8-2.4-2.5c0.1-1-0.3-2.2,0.1-3.2c0.4-0.9,1.3-2.1,2.2-2.2C187.2,157.1,189.3,157.3,191.5,157.3z"/>
</svg>
