<?xml version="1.0" encoding="utf-8"?>
<!-- Generator: Adobe Illustrator 18.1.1, SVG Export Plug-In . SVG Version: 6.00 Build 0)  -->
<svg version="1.1" id="Layer_1" xmlns="http://www.w3.org/2000/svg" xmlns:xlink="http://www.w3.org/1999/xlink" x="0px" y="0px"
	 viewBox="0 0 250 250" enable-background="new 0 0 250 250" xml:space="preserve">
<g id="Layer_2" display="none">
	<rect display="inline" fill="#2DCC70" width="250" height="250"/>
</g>
<g>
	<path fill="#FFFFFF" d="M69.7,27.1c1-2.7-1.2-6.8,3.2-6.8c4.4,0,2.1,4.2,3.2,6.7c9.3,0,18.8,0,28.6,0c0-1.3-0.1-2.7,0-3.9
		c0.1-1.8,1.1-2.8,2.9-2.8c1.7,0,2.7,1.2,2.7,2.8c0.1,1.2,0,2.6,0,4c9.7,0,19.1,0,28.9,0c0-1.3,0-2.6,0-3.8c0-1.8,0.9-2.9,2.8-2.9
		c1.9,0,2.7,1.2,2.9,2.9c0.1,1.2,0,2.4,0,3.8c9.6,0,18.9,0,28.7,0c0.1-1.2,0.2-2.5,0.2-3.7c0.1-1.7,0.8-3,2.7-3.1
		c1.9-0.1,2.7,1.2,3,2.9c0.1,1.2,0,2.4,0,3.9c1,0.1,1.8,0.2,2.7,0.2c6.3,0,12.7,0,19,0c6.1,0,8.8,2.7,8.8,8.7c0,29.5,0,59.1,0,88.6
		c0,31.4,0,62.7,0,94.1c0,6.8-2.6,9.3-9.4,9.3c-50.7,0-101.5,0-152.2,0c-6,0-8.7-2.7-8.7-8.8c0-61.1,0-122.3,0-183.4
		c0-5.7,2.8-8.6,8.5-8.6C55.5,27,62.6,27.1,69.7,27.1z M104.7,42c-9.4,0-18.5,0-27.6,0c-0.4,0-1,0.5-1.2,0.9
		c-0.8,2.5,0.1,4.4,2.5,5.5c5.1,2.3,8,6.3,8.2,12c0.2,5.7-2.3,10.1-7.4,12.7c-5,2.6-10,2.1-14.4-1.3c-4.2-3.2-6-7.5-5.2-12.7
		c0.6-5.2,3.7-8.8,8.5-10.9c0.7-0.3,1.7-1,1.9-1.7c0.3-1.3,0.1-2.8,0.1-4.2c-5.3,0-10.3,0-15.2,0c0,57,0,113.8,0,170.6
		c46.9,0,93.6,0,140.5,0c0-1,0-1.7,0-2.6c0-45.8,0-91.5,0-137.4c0-9.5,0-19-0.1-28.6c0-0.7-0.7-2.2-1.1-2.2
		c-4.8-0.2-9.7-0.1-14.5-0.1c-0.6,4.8-0.6,4.8,3.3,6.9c6.7,3.7,9.2,12.1,5.5,18.7c-3.7,6.7-12.2,9.1-18.7,5.2
		c-4.8-2.8-7.2-7.2-6.7-12.8c0.4-5.7,3.5-9.4,8.6-11.7c0.8-0.3,1.8-1.1,2.1-1.9c0.3-1.2,0.1-2.7,0.1-4.2c-9.7,0-19.2,0-28.5,0
		c-0.8,4.6-0.7,4.7,2.8,6.6c5,2.7,7.7,6.9,7.6,12.7c-0.2,5.6-3,9.7-8.2,12c-5.2,2.3-10.2,1.5-14.6-2.2c-7.7-6.7-5.6-19,3.9-22.8
		c1.8-0.7,2.6-1.7,2.2-3.6C139,44,139,43,139,42.2c-9.7,0-19.2,0-28.6,0c-0.5,4.7-0.5,4.7,3.2,6.7c5.7,2.9,8.6,9.3,6.9,15.4
		c-1.7,6.3-7.2,10.6-13.6,10.4s-11.9-4.9-13.1-11.2c-1.2-6.3,2.1-12.7,8.2-15c2.1-0.8,2.8-1.8,2.5-3.9
		C104.6,43.9,104.7,43.1,104.7,42z M173.9,53.8c-4.1,1.9-5.8,5.4-4.8,9.2c0.8,3.4,4.5,6.1,8,5.9c4-0.2,7.1-3.2,7.6-7.2
		c0.4-3.2-1.7-6.5-5-7.7c0,2.2,0,4.2,0,6.3c0,2-0.8,3.5-2.9,3.5s-2.9-1.4-2.8-3.4C173.9,58.3,173.9,56.2,173.9,53.8z M75.8,53.9
		c0,2.2-0.1,4.3,0,6.3c0.1,2-0.7,3.4-2.7,3.6c-1.7,0.2-3-1.3-3-3.7c0-2.1,0-4.2,0-6.3c-3.7,1.5-5.7,5.1-4.9,8.6
		c0.8,3.7,4.1,6.5,7.8,6.5c3.7,0,7.2-2.9,7.8-6.5C81.4,58.6,79.6,55.3,75.8,53.9z M104.7,53.9c-3.8,1.6-5.7,5.2-4.9,8.8
		c0.8,3.7,4.6,6.6,8.2,6.2c4.2-0.4,7.2-3.7,7.4-7.7c0.1-3.5-2-6.5-5.1-7c0,2.2,0,4.4,0,6.6c0,1.8-1,3-2.7,3.1
		c-1.9,0.1-2.9-1.2-2.9-3.1C104.7,58.5,104.7,56.3,104.7,53.9z M139.3,53.8c-4,1.7-5.7,5.1-4.9,8.9c0.7,3.5,4.2,6.2,7.7,6.2
		c3.9,0,7.2-3.1,7.8-7c0.5-3.3-1.6-6.7-5-7.9c0,2.2,0,4.4,0,6.6c0,1.9-0.9,3.2-2.8,3.2c-1.9,0-2.9-1.2-2.9-3.2
		C139.3,58.5,139.3,56.3,139.3,53.8z"/>
	<path fill="#FFFFFF" d="M138.4,108c-12.3,0-24.7,0-37.1,0c-0.7,0-1.5,0.2-1.9-0.1c-0.9-0.7-2.2-1.5-2.3-2.3c0-1,0.9-2.2,1.8-3
		c0.5-0.4,1.5-0.3,2.3-0.3c24.7,0,49.4,0,74.1,0c0.6,0,1.2,0,1.7,0c1.7,0.2,3,1.2,2.9,3c-0.1,1.7-1.2,2.7-3.1,2.7
		c-6.6,0-13.2,0-19.7,0C150.9,108,144.6,108,138.4,108L138.4,108z"/>
	<path fill="#FFFFFF" d="M138.5,145c-12.1,0-24.2,0-36.3,0c-0.7,0-1.5,0-2.2,0c-1.8,0-3-0.9-3.1-2.7c0-2,1.2-2.9,3.1-2.9
		c5.6,0,11.2,0,16.8,0c19.5,0,39.1,0,58.6,0c0.6,0,1.2,0,1.7,0c1.8,0.2,2.9,1.2,2.8,3c-0.1,1.7-1.1,2.7-2.9,2.7c-2,0-4.1,0-6.1,0
		C160.2,145,149.4,145,138.5,145z"/>
	<path fill="#FFFFFF" d="M138.4,176.2c12.6,0,25.2,0,37.8,0c2.1,0,3.6,0.5,3.8,2.7c0.2,1.8-1.4,3-3.9,3c-0.5,0-1,0-1.5,0
		c-10.6,0-21.2,0-31.7,0c-13.7,0-27.3,0-41,0c-0.7,0-1.3,0-1.9,0c-1.9-0.2-3.2-1.1-3.1-3.1c0.1-1.8,1.2-2.7,3.1-2.7
		c3.1,0,6.2,0,9.2,0C119,176.2,128.7,176.2,138.4,176.2L138.4,176.2z"/>
	<path fill="#FFFFFF" d="M86.2,105.2c0,2.1,0,4.2,0,6.3c-0.1,2.1-1.2,3.2-3.2,3.2c-4.2,0-8.2,0-12.4,0c-2.1,0-3.2-1.2-3.2-3.2
		c-0.1-4.2-0.1-8.4,0-12.7c0.1-2,1.2-3.1,3.2-3.1c4.2,0,8.2,0,12.4,0c2.1,0,3.2,1.1,3.2,3.1C86.2,101,86.2,103.1,86.2,105.2
		L86.2,105.2z"/>
	<path fill="#FFFFFF" d="M86.2,178.9c0,2,0.1,4.1,0,6.1c-0.1,2.6-0.8,3.4-3.3,3.4c-4.1,0.1-8.2,0-12.2,0c-2.1,0-3.2-1.1-3.3-3.1
		c-0.1-4.2-0.1-8.5,0-12.7c0-2,1.2-3.2,3.2-3.2c4.2,0,8.3-0.1,12.4,0c2,0,3.2,1.2,3.2,3.2C86.2,174.9,86.2,176.9,86.2,178.9
		L86.2,178.9z"/>
	<path fill="#FFFFFF" d="M76.7,132.8c2,0,4.1,0,6.1,0c2.2,0,3.3,1,3.3,3.2c0,4.2,0,8.4,0,12.7c0,2-1.2,3-3,3.1
		c-4.2,0.1-8.4,0.1-12.7,0c-2,0-3.2-1.2-3.2-3.2c-0.1-4.2-0.1-8.2,0-12.4c0-2.1,1.2-3.2,3.3-3.2C72.7,132.8,74.7,132.8,76.7,132.8
		L76.7,132.8z"/>
</g>
</svg>
