<?xml version="1.0" encoding="utf-8"?>
<!-- Generator: Adobe Illustrator 18.1.1, SVG Export Plug-In . SVG Version: 6.00 Build 0)  -->
<svg version="1.1" id="Layer_1" xmlns="http://www.w3.org/2000/svg" xmlns:xlink="http://www.w3.org/1999/xlink" x="0px" y="0px"
	 viewBox="0 0 250 250" enable-background="new 0 0 250 250" xml:space="preserve">
<g id="Layer_2" display="none">
	<rect display="inline" fill="#2DCC70" width="250" height="250"/>
</g>
<path fill="none" d="M0,0h250v250H0V0z"/>
<path fill="#FFFFFF" d="M84.4,139l29.5-29.5l-73.1-73c-16.3,16.3-16.3,42.6,0,59L84.4,139z M155,120.1c15.9,7.4,38.3,2.2,54.9-14.4
	c19.9-19.9,23.8-48.4,8.4-63.7c-15.2-15.2-43.7-11.5-63.8,8.4c-16.6,16.6-21.8,39-14.4,54.9L38.5,207l14.7,14.7l71.8-71.6l71.7,71.7
	l14.7-14.7l-71.7-71.7C139.7,135.4,155,120.1,155,120.1z"/>
</svg>
