<?xml version="1.0" encoding="utf-8"?>
<!-- Generator: Adobe Illustrator 18.1.1, SVG Export Plug-In . SVG Version: 6.00 Build 0)  -->
<svg version="1.1" id="Layer_1" xmlns="http://www.w3.org/2000/svg" xmlns:xlink="http://www.w3.org/1999/xlink" x="0px" y="0px"
	 viewBox="0 0 250 250" enable-background="new 0 0 250 250" xml:space="preserve">
<g id="Layer_2" display="none">
	<rect display="inline" fill="#2DCC70" width="250" height="250"/>
</g>
<path fill="#FFFFFF" d="M130.1,206.8c-33.8,0-67.3,0-101,0c0-53.6,0-107.1,0-160.8c8,0,16,0,24.2,0c-0.3,8,2.2,14.7,8.9,19.5
	c4.1,2.9,8.6,4.1,13.5,3.7c6-0.4,10.8-3,14.6-7.6s5.1-9.8,4.7-15.7c17.2,0,34.1,0,51.4,0c-0.3,7.6,1.9,14,8,18.8
	c3.9,3.1,8.3,4.6,13.3,4.5c6.1-0.2,11.3-2.5,15.3-7.2s5.5-10.1,5.2-16.2c8.2,0,16.1,0,24.3,0c0,26.1,0,52.1,0,78.1
	c-3.2-2.1-6.1-4.5-9.5-5.9c-3.7-1.6-4.7-3.8-4.5-7.6c0.3-6.4,0.1-12.7,0.1-19.2c-51.8,0-103.6,0-155.5,0c0,34.8,0,69.6,0,104.6
	c0.8,0,1.5,0,2.2,0c25.1,0,50.3,0,75.5-0.1c1.7,0,2.7,0.5,3.6,2.1c1.4,2.5,3.2,4.9,4.8,7.4C129.3,205.8,129.6,206.3,130.1,206.8z"/>
<path fill="#FFFFFF" d="M226.1,169.7c-0.1,28.2-23,51-51.1,51c-28-0.1-50.8-23.1-50.7-51.2s23.1-50.9,51-50.9
	C203.4,118.6,226.2,141.6,226.1,169.7z M175.2,207.9c21.1,0,38.2-17.1,38.2-38.2c0.1-21.2-17-38.4-38.2-38.5s-38.2,17-38.3,38.2
	C137,190.8,154.1,207.8,175.2,207.9z"/>
<path fill="#FFFFFF" d="M181,42.1c-0.2,3.2,0,6.4-0.6,9.5c-1.3,6.6-7.8,11.2-14.3,10.5c-7.1-0.8-12.3-6.4-12.5-13.4
	c-0.1-4.4-0.1-8.8,0-13.2c0.1-7.5,6.2-13.4,13.7-13.4c7.4,0,13.4,6,13.5,13.4c0,2.2,0,4.4,0,6.6C180.9,42.1,181,42.1,181,42.1z"/>
<path fill="#FFFFFF" d="M87.9,42.2c-0.2,3,0,6-0.5,9c-1.1,6.7-7.5,11.5-14.2,11c-7.1-0.6-12.6-6.1-12.7-13c-0.1-4.5-0.1-9.1,0-13.6
	c0.2-7.5,6.1-13.4,13.5-13.4c7.4,0,13.4,5.9,13.7,13.3c0.1,2.2,0,4.5,0,6.8C87.9,42.2,87.9,42.2,87.9,42.2z"/>
<path fill="#FFFFFF" d="M79.7,153c-6.4,0-12.6,0-18.8,0c0-6.3,0-12.6,0-18.9c6.3,0,12.5,0,18.8,0C79.7,140.4,79.7,146.6,79.7,153z"
	/>
<path fill="#FFFFFF" d="M79.7,163.5c0,6.4,0,12.6,0,18.9c-6.3,0-12.6,0-18.8,0c0-6.3,0-12.5,0-18.9C67,163.5,73.3,163.5,79.7,163.5z
	"/>
<path fill="#FFFFFF" d="M113.9,123.6c-6.3,0-12.5,0-18.9,0c0-2,0-3.9,0-5.7c0-3.9,0-7.9,0.1-11.8c0-0.5,0.6-1.4,1-1.4
	c6-0.1,11.8-0.1,17.9-0.1C113.9,111,113.9,117.2,113.9,123.6z"/>
<path fill="#FFFFFF" d="M95.1,153c0-6.3,0-12.5,0-18.8c6.3,0,12.5,0,18.8,0c0,6.2,0,12.5,0,18.8C107.7,153,101.4,153,95.1,153z"/>
<path fill="#FFFFFF" d="M113.9,163.5c0,6.3,0,12.5,0,18.8c-6.3,0-12.5,0-18.8,0c0-6.3,0-12.6,0-18.8
	C101.4,163.5,107.7,163.5,113.9,163.5z"/>
<path fill="#FFFFFF" d="M129.4,123.7c0-6.4,0-12.6,0-18.9c6.3,0,12.6,0,19,0c0,4.1,0,8.2-0.1,12.2c0,0.4-0.6,0.9-1,1.1
	c-2.5,1.7-5,3.3-7.5,4.9c-0.4,0.2-0.9,0.6-1.3,0.6C135.6,123.7,132.5,123.7,129.4,123.7z"/>
<path fill="#FFFFFF" d="M163.6,111.7c0-2.1,0-4.5,0-6.9c6.3,0,12.6,0,18.9,0c0,2.2,0,4.4,0,6.3C176.3,111.2,170,111.5,163.6,111.7z"
	/>
<path fill="#FFFFFF" d="M167.9,171.2c0.1-4.1,3.7-7,7.7-6.4c1,0.2,2.1,0,3.1-0.4c6.8-3.3,13.5-6.8,20.3-10.2
	c1.7-0.9,3.3-0.9,4.9,0.2c1.4,1,1.8,2.4,1.6,4.1s-1.4,2.6-2.8,3.3c-6.7,3.3-13.4,6.8-20.1,10.2c-0.9,0.5-1.7,1.4-2.1,2.2
	c-1.5,2.7-4.5,4.1-7.4,3.4C169.8,177,167.9,174.4,167.9,171.2z"/>
</svg>
