<?xml version="1.0" encoding="utf-8"?>
<!-- Generator: Adobe Illustrator 18.1.1, SVG Export Plug-In . SVG Version: 6.00 Build 0)  -->
<svg version="1.1" id="Layer_1" xmlns="http://www.w3.org/2000/svg" xmlns:xlink="http://www.w3.org/1999/xlink" x="0px" y="0px"
	 viewBox="0 0 250 250" enable-background="new 0 0 250 250" xml:space="preserve">
<g id="Layer_2" display="none">
	<rect display="inline" fill="#2DCC70" width="250" height="250"/>
</g>
<path fill="#FFFFFF" d="M200,57.9c-4.1-4-8.1-8-12.1-12c-1.3-1.3-2.7-2.7-4-4.1c0.8,0,1.6,0,2.4,0c0.6,0.2,1.3,0.4,1.9,0.5
	c4.3,1.1,8,3.2,9.9,7.4c0.9,1.9,1.3,4.1,1.9,6.3C200,56.6,200,57.2,200,57.9z"/>
<path fill="#FFFFFF" d="M180.7,45.2c5.9,5.9,11.6,11.6,17.5,17.6c-24.8,28.9-49.7,58-74.5,86.9c-10-10-19.9-20-29.9-29.9
	C122.6,95,151.7,70.1,180.7,45.2z"/>
<path fill="#FFFFFF" d="M89.7,124.3c9.8,9.8,19.6,19.6,29.5,29.4c-12.8,8.9-25.6,17.7-38.4,26.6c-5.9-5.9-11.7-11.7-17.6-17.6
	C71.9,149.9,80.8,137.1,89.7,124.3z"/>
<path fill="#FFFFFF" d="M34,208.3c5.6-6.3,8.6-13.7,9.7-21.8c0.5-3.2,1.6-5.3,4.3-7.1c4.9-3.4,9.6-7.2,14.3-10.8
	c0.7-0.5,1.2-0.7,1.9,0c3.5,3.5,7.1,6.9,10.6,10.4c0.3,0.3,0.5,0.5,0.7,0.9c-1.9,2.4-3.7,4.8-5.5,7.2c-3.3,4.3-6.7,8.7-10,12.9
	c-0.3,0.4-0.9,0.7-1.4,0.7c-8.6-0.5-16.1,2.5-23.3,6.8C34.9,207.8,34.5,208,34,208.3z M53.6,187.2c-2,0-3.7,1.6-3.7,3.7
	c0,2.1,1.6,3.8,3.7,3.8c2,0,3.7-1.7,3.7-3.7C57.3,188.9,55.7,187.3,53.6,187.2z"/>
</svg>
