<?xml version="1.0" encoding="utf-8"?>
<!-- Generator: Adobe Illustrator 18.1.1, SVG Export Plug-In . SVG Version: 6.00 Build 0)  -->
<svg version="1.1" id="Layer_1" xmlns="http://www.w3.org/2000/svg" xmlns:xlink="http://www.w3.org/1999/xlink" x="0px" y="0px"
	 viewBox="0 0 250 250" enable-background="new 0 0 250 250" xml:space="preserve">
<g id="Layer_2" display="none">
	<rect display="inline" fill="#2DCC70" width="250" height="250"/>
</g>
<path fill="#FFFFFF" d="M4,91c1.4-3.1,2.7-6,4.2-9.3c25.9,11.6,51.7,23.2,77.8,34.9c0-2.6,0-5,0-7.5c52.9,0,105.6,0,158.5,0
	c0.4,5.7,0,11.3-1.4,16.8c-5.5,21.7-24.3,36.8-46.7,37.1c-20.7,0.3-41.4,0.2-62.1,0c-20.4-0.2-38.2-12.9-45.2-31.9
	c-0.6-1.7-1.6-2.7-3.3-3.4C59.6,116,33.4,104.2,7.2,92.5C6.2,92,5.2,91.5,4,91z"/>
<path fill="#FFFFFF" d="M234.1,174.6c0,3.3,0,6.5,0,9.8c-45.9,0-91.7,0-137.8,0c0-3.2,0-6.5,0-9.8
	C142.2,174.6,188,174.6,234.1,174.6z"/>
<path fill="#FFFFFF" d="M170.2,93.5c-3.3,0-6.5,0-9.9,0c0-15.9,0-31.8,0-47.8c3.2,0,6.4,0,9.9,0C170.2,61.6,170.2,77.4,170.2,93.5z"
	/>
<path fill="#FFFFFF" d="M137.3,65.1c3.4,0,6.6,0,9.9,0c0,9.5,0,18.8,0,28.4c-3.2,0-6.5,0-9.9,0C137.3,84,137.3,74.7,137.3,65.1z"/>
<path fill="#FFFFFF" d="M182.8,65.1c3.4,0,6.6,0,9.9,0c0,9.5,0,18.8,0,28.4c-3.3,0-6.5,0-9.9,0C182.8,84,182.8,74.7,182.8,65.1z"/>
</svg>
