<?xml version="1.0" encoding="utf-8"?>
<!-- Generator: Adobe Illustrator 18.1.1, SVG Export Plug-In . SVG Version: 6.00 Build 0)  -->
<svg version="1.1" xmlns="http://www.w3.org/2000/svg" xmlns:xlink="http://www.w3.org/1999/xlink" x="0px" y="0px"
	 viewBox="0 0 800 800" enable-background="new 0 0 800 800" xml:space="preserve">
<g id="Layer_2" display="none">
	<rect display="inline" fill="#2DCC70" width="800" height="800"/>
</g>
<g id="Layer_1">
	<path fill="#FFFFFF" d="M788.5,299.1c-12.9,7.1-25.4,15.5-38.9,21.2c-27.4,11.5-27.6,10.9-27.6,40c0,74.4-0.4,148.7,0.3,223.1
		c0.1,15.1-5,22.9-19.1,28.1c-103.4,37.8-206.5,76.3-309.9,114c-6.8,2.5-16.2,2.2-22.9-0.5c-93.1-37.7-186-76.2-279.1-114
		c-12.1-4.9-16.8-12.1-16.7-25.2c0.4-80.4,0-160.9,0.5-241.3c0.1-10.8-2.8-16.5-13.3-19.6c-11.1-3.3-22-7.5-32.4-12.6
		c-6.5-3.2-11.8-8.6-17.7-13c0-3,0-6.1,0-9.1c18.3-32.4,36.3-65.2,55.4-97.1c4.2-7.1,11.8-14.1,19.5-17
		c98.8-38.2,198-75.5,296.9-113.4c11.6-4.5,21.8-4.4,33.4,0c98.9,37.9,198.1,75.3,296.9,113.4c7.6,2.9,15.2,9.9,19.5,17
		c19.1,32,37,64.7,55.4,97.1C788.5,293.1,788.5,296.1,788.5,299.1z M399,688.3c4.2-1.2,6.6-1.8,8.9-2.6
		c90-33.2,179.8-66.6,269.9-99.4c9.5-3.5,11.6-8.6,11.6-17.9c-0.3-69.8-0.2-139.5-0.2-209.3c0-4.4-0.5-8.8-0.8-14.3
		c-5.9,2.1-10.6,3.6-15.2,5.4c-67.8,26.1-135.7,52.1-203.5,78.2c-19.7,7.6-22.5,6.6-35-11.1c-11-15.7-22.1-31.5-33.1-47.2
		c-0.9,0.5-1.7,0.9-2.6,1.4C399,476.4,399,581.3,399,688.3z M107.5,342.7c-0.4,7-1,11.4-1,15.8c-0.1,69.7,0.2,139.5-0.3,209.2
		c-0.1,10.8,3.3,15.9,13.4,19.9c77.6,31.4,155,63.4,232.5,95.1c4,1.6,8.1,2.7,12.7,4.3c0-101.8,0-202,0-302.2
		c-7.5,8-12.3,17.1-17.3,26.1c-9.3,16.8-14.1,18.7-31.5,12c-16.5-6.3-32.9-12.7-49.4-19.1C214.4,383.8,162.2,363.7,107.5,342.7z
		 M129.5,193.9c2.7,1.9,3.8,3.1,5.1,3.7c80.1,31.9,160.3,63.9,240.6,95.3c4.9,1.9,11.9,1.4,17.1-0.4
		c87.4-31.1,174.8-62.6,262.1-94.1c3.3-1.2,6.3-3.2,10-5.2c-2-1.6-2.7-2.5-3.6-2.8C576.4,158.2,492,126,407.5,94.2
		c-4.3-1.6-10.3-1.9-14.5-0.3C305.7,126.8,218.5,160,129.5,193.9z M748.4,286.4c-13.9-25-27.1-48.6-40.6-73
		c-100.4,36.1-199.7,71.8-300.3,108c18.3,26.3,35.3,50.7,52.8,75.8C556.5,360.2,651.9,323.5,748.4,286.4z M51.6,286.4
		c90.9,35,180.2,69.3,270.3,104c12.6-23.3,24.7-45.6,37.2-68.7c-90.6-36-179-71.1-267.9-106.4C77.7,239.5,65.2,261.9,51.6,286.4z"/>
</g>
</svg>
