<?xml version="1.0" encoding="utf-8"?>
<!-- Generator: Adobe Illustrator 18.1.1, SVG Export Plug-In . SVG Version: 6.00 Build 0)  -->
<svg version="1.1" id="Layer_1" xmlns="http://www.w3.org/2000/svg" xmlns:xlink="http://www.w3.org/1999/xlink" x="0px" y="0px"
	 viewBox="0 0 250 250" enable-background="new 0 0 250 250" xml:space="preserve">
<g id="Layer_2" display="none">
	<rect display="inline" fill="#2DCC70" width="250" height="250"/>
</g>
<path fill="#FFFFFF" stroke="#FFFFFF" stroke-width="7" stroke-miterlimit="10" d="M126.2,12.5c-62.5-0.2-112.7,49.8-112.8,112
	c-0.1,61.3,49.9,111.8,110.7,112.2C186.2,237,236.2,187.1,237,126C237.8,63.7,187.6,12.8,126.2,12.5z M216.5,72.7
	c-29.7,16.1-59.4,32.1-89.2,48.2c-10.7-32.4-21.5-64.7-32.2-97C135.3,10.3,190.4,25.6,216.5,72.7z M115.9,229.5
	c-50.6-4.4-89.2-44-95-91.8c-6.5-54,27.5-97.4,67.8-111.8c1.7,5,3.4,10.1,5,15.1c9.3,27.9,18.6,55.7,27.8,83.6
	c0.9,2.8,2.4,4.3,5.1,5.2c31.1,11,62.3,22.1,93.4,33.1c0.8,0.3,1.7,0.7,2.5,1C208.7,200.4,168.4,234.1,115.9,229.5z M225,157.6
	c-30.5-10.8-60.7-21.5-91.4-32.4c29-15.7,57.4-31.1,86.2-46.6C231.8,104.4,233.4,130.5,225,157.6z"/>
</svg>
