<?xml version="1.0" encoding="utf-8"?>
<!-- Generator: Adobe Illustrator 18.1.1, SVG Export Plug-In . SVG Version: 6.00 Build 0)  -->
<svg version="1.1" id="Layer_1" xmlns="http://www.w3.org/2000/svg" xmlns:xlink="http://www.w3.org/1999/xlink" x="0px" y="0px"
	 viewBox="0 0 250 250" enable-background="new 0 0 250 250" xml:space="preserve">
<g id="Layer_2" display="none">
	<rect display="inline" fill="#2DCC70" width="250" height="250"/>
</g>
<path fill="#FFFFFF" d="M144.6,5.9c0,2.8,0,5.7,0,8.7c14.7,0,29.2,0,43.9,0c0,70,0,139.9,0,209.9c-3.7,0-7.4,0-11.3,0
	c0-66.1,0-132.1,0-198.3c-11,0-21.7,0-32.5,0c0,72.2,0,144.3,0,216.6c-1.1-0.2-2-0.3-2.8-0.5c-23-5.7-46-11.4-69-17.1
	c-1.6-0.4-2.2-1-2.2-2.8c0-63.8,0-127.6,0-191.5c0-1.7,0.5-2.5,2.1-2.9c1.6-0.3,3.1-0.9,4.6-1.8c-3.7,0-7.3,0-11.2,0
	c0,66,0,131.9,0,198.1c-3.9,0-7.5,0-11.4,0c0-69.8,0-139.6,0-209.8c0.9,0,1.8,0,2.7,0c18.5,0,37.1,0,55.6,0c2,0,4-0.3,5.9-0.9
	c7.6-2.2,15.2-4.6,22.8-7c0.6-0.2,1.2-0.6,1.8-0.8C144,5.9,144.3,5.9,144.6,5.9z M120.5,140.6c0,4.5,3,8.2,6.7,8.2
	c3.7,0,6.8-3.7,6.7-8.2c-0.1-4.4-3.1-8-6.7-8C123.6,132.5,120.6,136.2,120.5,140.6z"/>
</svg>
