<?xml version="1.0" encoding="utf-8"?>
<!-- Generator: Adobe Illustrator 18.1.1, SVG Export Plug-In . SVG Version: 6.00 Build 0)  -->
<svg version="1.1" id="Layer_1" xmlns="http://www.w3.org/2000/svg" xmlns:xlink="http://www.w3.org/1999/xlink" x="0px" y="0px"
	 viewBox="0 0 400 400" enable-background="new 0 0 400 400" xml:space="preserve">
<path fill="#FFFFFF" d="M205.3,261.3c48.8,0,97.5,0,146.3,0c10.4,0,18.1,4.9,22.4,14.4c4.3,9.3,2.8,18.2-3.7,26
	c-4.6,5.6-10.8,8.4-18.1,8.5c-10.1,0.1-20.1,0-30.2,0c-87.5,0-174.9,0-262.4,0C45,310.2,34.1,299.8,34,286
	c-0.1-13.6,10.6-24.6,24.2-24.7c21-0.1,42,0,63,0C149.2,261.3,177.3,261.3,205.3,261.3z"/>
<path fill="#FFFFFF" d="M204.8,212.4c-48.6,0-97.3,0-145.9,0c-19.1,0-31-19.6-22-36.1c4.5-8.1,11.5-12.4,20.7-12.7
	c7.4-0.3,14.8-0.1,22.1-0.1c90.3,0,180.5,0,270.8,0c14.4,0,25.3,10.2,25.5,23.8c0.2,13.8-10.5,25-24.3,25c-20.5,0.1-41,0-61.5,0
	C261.9,212.4,233.4,212.4,204.8,212.4z"/>
<path fill="#FFFFFF" d="M205.5,65.8c48.8,0,97.5-0.1,146.3,0.1c10.4,0,18,5,22.3,14.5c4.2,9.3,2.7,18.2-3.9,26
	c-4.9,5.7-11.3,8.4-18.9,8.4c-28.1,0-56.3,0-84.4,0c-69.1,0-138.2,0-207.4,0c-14.2,0-25.1-10.2-25.4-23.6
	c-0.4-13.9,10.4-25.2,24.4-25.3c25.3-0.1,50.7,0,76,0C158.1,65.8,181.8,65.8,205.5,65.8z"/>
</svg>
