<?xml version="1.0" encoding="utf-8"?>
<!-- Generator: Adobe Illustrator 18.1.1, SVG Export Plug-In . SVG Version: 6.00 Build 0)  -->
<svg version="1.1" id="Layer_1" xmlns="http://www.w3.org/2000/svg" xmlns:xlink="http://www.w3.org/1999/xlink" x="0px" y="0px"
	 viewBox="0 0 400 400" enable-background="new 0 0 400 400" xml:space="preserve">
<g id="Layer_2">
</g>
<path fill="#FFFFFF" d="M307.5,195.7c0-45.1,0-90.1,0-135.2c0-7.3,0-14.6,0-21.9c0-2.3-0.2-4.6-0.9-6.9c-2-7.2-6.5-12.6-12.8-16.6
	c-6.6-4.2-13.9-6-21.7-6c-45.9,0-91.8,0-137.7,0c-4.8,0-9.4,0.7-14,2.2c-14,4.8-21.4,15.2-21.4,29.8c0,103,0,206,0,309.1
	c0,1,0,2,0,3c0.1,3.3,0.7,6.5,2,9.5c3.3,7.6,9.1,12.6,16.6,15.9c5.5,2.4,11.3,3.3,17.2,3.3c32.9,0,65.7,0,98.6,0c13,0,25.9,0,38.9,0
	c4.4,0,8.7-0.6,12.8-1.9c6.9-2.2,12.7-6,17.1-11.9c4-5.4,5.1-11.6,5.1-18.2C307.4,298.5,307.5,247.1,307.5,195.7z M178,24.2
	c0.6-0.1,1.2-0.1,1.9-0.1c15.6,0,31.2,0,46.8,0c0.7,0,1.4,0,2.1,0.2c1.7,0.4,2.7,1.7,2.8,3.3c0.1,1.7-1,3-2.8,3.6
	c-0.8,0.2-1.5,0.2-2.3,0.2c-7.7,0-15.4,0-23.1,0c-7.7,0-15.4,0-23.1,0c-0.8,0-1.6,0-2.3-0.1c-1.9-0.4-3.1-1.9-3-3.6
	C175,25.9,176.2,24.5,178,24.2z M231.5,362.1c-0.1,1.9-1.3,3.1-3.2,3.4c-0.7,0.1-1.4,0.1-2.1,0.1c-7.7,0-15.4,0-23.1,0
	c-7.6,0-15.2,0-22.8,0c-0.6,0-1.2,0-1.9,0c-2.1-0.3-3.4-1.6-3.4-3.7c-0.1-3.2-0.1-6.4,0-9.5c0-2,1.3-3.3,3.3-3.6
	c0.7-0.1,1.4-0.1,2.1-0.1c15.3,0,30.6,0,45.9,0c0.6,0,1.2,0,1.9,0c2,0.3,3.3,1.5,3.4,3.5C231.7,355.4,231.7,358.7,231.5,362.1z
	 M283.8,319.8c0,7.6-4.4,12.3-12.1,12.7c-0.8,0-1.6,0-2.3,0c-44.1,0-88.1,0-132.2,0c-2.2,0-4.3-0.2-6.4-0.9c-5.4-1.9-8-5.5-8-11.2
	c0-88.2,0-176.4,0-264.6c0-6.6,3.9-11.1,10.6-11.9c1.4-0.2,2.8-0.2,4.2-0.2c43.8,0,87.6,0,131.5,0c2.4,0,4.8,0.1,7.1,1
	c5.2,2,7.6,5.4,7.6,11c0,44.1,0,88.3,0,132.4C283.8,232,283.8,275.9,283.8,319.8z"/>
</svg>
