<?xml version="1.0" encoding="utf-8"?>
<!-- Generator: Adobe Illustrator 18.1.1, SVG Export Plug-In . SVG Version: 6.00 Build 0)  -->
<svg version="1.1" xmlns="http://www.w3.org/2000/svg" xmlns:xlink="http://www.w3.org/1999/xlink" x="0px" y="0px"
	 viewBox="0 0 500 516" enable-background="new 0 0 500 516" xml:space="preserve">
<g id="Layer_2">
</g>
<g id="Layer_1">
	<path fill="#FFFFFF" d="M319.3,103.6c0.8,0.7,1.4,1.2,2,1.8c3,2.9,5.8,6,8.9,8.8c1.6,1.5,1.7,2.6-0.1,4c-0.8,0.6-1.4,1.4-2.1,2.1
		c-74.1,74.1-148.2,148.2-222.4,222.3c-3.1,3.1-3.5,4.8,0,7.5c3,2.3,5.4,7.2,8.3,7.3c3.4,0.2,5.9-4.7,8.7-7.5
		c72.5-72.4,145-144.9,217.3-217.4c3.2-3.2,4.9-3.8,8.4-0.2c18.3,18.7,36.8,37.2,55.5,55.5c2.5,2.5,2.3,3.8-0.1,6.2
		c-79,78.9-158,157.8-236.8,236.8c-2.5,2.5-3.8,2.3-6.2-0.1c-27-27.2-54.1-54.3-81.3-81.3c-2.5-2.5-2.5-3.7,0-6.2
		c79-78.9,157.9-157.8,236.9-236.8C317.2,105.4,318.2,104.6,319.3,103.6z"/>
	<path fill="#FFFFFF" d="M375.4,58.9c11.4,0.1,19.1,3.2,25.4,9.5c13.6,13.5,27.1,27.1,40.7,40.7c12.6,12.6,13.2,32.3,1.1,45.6
		c-7.2,7.9-15.1,15.1-22.5,22.8c-1.8,1.9-2.8,1.3-4.3-0.2c-27.5-27.6-55.1-55.2-82.7-82.7c-2.1-2.1-1.8-3.2,0.1-5.1
		c7.1-6.8,13.9-13.9,20.9-20.8C360.6,62.2,368.5,58.7,375.4,58.9z"/>
	<path fill="#FFFFFF" d="M66.2,358c28.8,28.8,57.1,57.1,85.8,85.8c-11,1.7-21.9,3.4-32.7,5.1c-21.5,3.3-43,6.5-64.6,9.8
		c-2.5,0.4-4.1,0.7-3.5-2.9C56.3,423.3,61.2,390.8,66.2,358z"/>
</g>
</svg>
