<?xml version="1.0" encoding="utf-8"?>
<!-- Generator: Adobe Illustrator 18.1.1, SVG Export Plug-In . SVG Version: 6.00 Build 0)  -->
<svg version="1.1" xmlns="http://www.w3.org/2000/svg" xmlns:xlink="http://www.w3.org/1999/xlink" x="0px" y="0px"
	 viewBox="0 0 500 516" enable-background="new 0 0 500 516" xml:space="preserve">
<g id="Layer_2">
</g>
<g id="Layer_1">
	<path fill="#FFFFFF" d="M249,454.2c-55.4,0.2-110.3-5.6-165-13.6c-8.8-1.3-13-5.6-12.9-14.6c0.1-34.3-0.7-68.6,0.2-102.8
		c1.1-43.8,36-77.3,80-78.2c12.2-0.2,24.3,0.4,36.5-0.2c6.6-0.3,9.7,2.1,12.3,8.1c11.9,27.4,26.3,53.5,44.5,77.3
		c4.4,5.7,6.7,5.8,11.1,0.1c18-23.1,32.3-48.4,43.8-75.2c3.6-8.3,7.8-10.9,16.4-10.3c13.9,0.9,28.1-0.3,41.9,1.1
		C398,250,428.7,284,429,324.4c0.3,33.5-0.1,67.1,0.2,100.6c0.1,9.5-3.5,14.2-12.9,15.6C360.7,448.7,305.1,454.5,249,454.2z"/>
	<path fill="#FFFFFF" d="M354.2,132.8c0.1,57.9-45.8,104.4-103.2,104.5c-58.4,0.2-105.1-45.9-105.2-103.9
		C145.7,75.2,191.9,29,250.4,29.1C308.3,29.1,354.1,74.9,354.2,132.8z"/>
</g>
</svg>
