<?xml version="1.0" encoding="utf-8"?>
<!-- Generator: Adobe Illustrator 18.1.1, SVG Export Plug-In . SVG Version: 6.00 Build 0)  -->
<svg version="1.1" id="Ebene_4" xmlns="http://www.w3.org/2000/svg" xmlns:xlink="http://www.w3.org/1999/xlink" x="0px" y="0px"
	 viewBox="0 0 400 400" enable-background="new 0 0 400 400" xml:space="preserve">
<g>
	<polygon fill="#FFFFFF" points="160.8,143.9 146,179.9 255,179.9 240.1,143.9 350.9,200 240.1,256 255,220.1 146,220.1 160.7,256 
		49.7,200 	"/>
</g>
<path fill="#FFFFFF" d="M376.6,400H23.4C10.5,400,0,389.4,0,376.5V23.5C0,10.6,10.5,0,23.4,0h353.1C389.5,0,400,10.6,400,23.5v353.1
	C400,389.4,389.5,400,376.6,400z M198.5,35.2C108.4,36,35.8,109.8,35.1,200c-0.7,91.8,73,164.7,164.8,164.8
	c90.3,0.1,163.2-74.9,164.8-164.8C366.4,107.1,291.3,34.3,198.5,35.2z"/>
</svg>
