<?xml version="1.0" encoding="utf-8"?>
<!-- Generator: Adobe Illustrator 18.1.1, SVG Export Plug-In . SVG Version: 6.00 Build 0)  -->
<svg version="1.1" xmlns="http://www.w3.org/2000/svg" xmlns:xlink="http://www.w3.org/1999/xlink" x="0px" y="0px"
	 viewBox="0 0 100 100" enable-background="new 0 0 100 100" xml:space="preserve">
<g id="Layer_1" display="none">
	
		<image display="inline" overflow="visible" width="316" height="449" xlink:href="FBCC2CE.jpg"  transform="matrix(0.5737 0 0 0.5737 8.6667 -154.3333)">
	</image>
</g>
<g id="Layer_2">
	<path fill="#2B231E" d="M52.2,62.3c-6.7,0.2-11.7-2.4-14.9-8.4c-4.4,1.5-8.7,2.9-13,4.5c-0.5,0.2-0.8,1.4-1,2.2
		c-0.6,3.1-2.9,5.6-5.9,6.2c-3.2,0.6-6-0.3-7.9-3.1c-1.7-2.4-1.8-6-0.1-8.5c2.6-4.1,8.2-4.7,11.7-1.2c1.1,1.1,1.9,1.3,3.2,0.8
		c3.4-1.2,6.8-2.3,10.2-3.5C35.2,51,36,50,36,49.5c-0.3-3.8,0.7-7.3,2.8-10.5c-2-1.9-3.9-3.8-5.9-5.5c-0.5-0.4-1.8-0.2-2.6,0
		c-3,0.9-6.2,0.1-8.2-2.2c-2-2.3-2.5-5.7-1.1-8.4c1.4-2.8,4.3-4.4,7.4-4.2c4.8,0.4,8.1,5.1,6.6,9.7c-0.5,1.5-0.3,2.4,0.9,3.4
		c1.7,1.4,3.3,3,5.1,4.7c0.5-0.3,0.9-0.5,1.3-0.7c3.9-2.6,8.1-3.2,12.7-1.9c0.7,0.2,2-0.2,2.3-0.7c2.2-3.5,4.4-7.1,6.4-10.8
		c0.3-0.6,0.2-1.7-0.2-2.4c-2-3.4-1.8-7,0.8-9.7c2.4-2.5,6.4-3,9.4-1.2c2.9,1.8,4.3,5.4,3.3,8.7c-1,3.5-4.3,5.6-8.3,5.4
		c-0.7,0-1.7,0.4-2.1,1c-2.4,3.9-4.7,7.9-7.1,12c3.5,2.9,5.5,6.7,5.8,11.5c3.6,0.4,7.1,0.9,10.7,1c0.7,0,1.5-1,2-1.7
		c1.9-2.6,5.1-3.9,8.2-3.1c2.9,0.7,5.3,3.4,5.7,6.3c0.4,3.2-1.3,6.2-4.2,7.6c-3.9,1.9-8.6,0.1-10.3-3.8c-0.3-0.6-0.4-1.3-0.7-2.1
		c-3.8-0.4-7.7-0.8-11.6-1.2c-1.4,5.2-4.6,8.7-9.4,10.8c0.8,3.5,1.4,6.9,2.4,10.3c0.2,0.7,1.5,1.2,2.4,1.5c3.9,1.3,6.1,5,5.3,9.1
		c-0.8,3.7-4.6,6.4-8.5,5.8c-4-0.6-7.1-4.2-6.4-8.1c0.3-1.9,1.9-3.6,2.8-5.4c0.4-0.8,1.1-1.7,1-2.5C53.8,68.9,53,65.7,52.2,62.3z"/>
</g>
</svg>
