<?xml version="1.0" encoding="utf-8"?>
<!-- Generator: Adobe Illustrator 18.1.1, SVG Export Plug-In . SVG Version: 6.00 Build 0)  -->
<svg version="1.1" id="Layer_1" xmlns="http://www.w3.org/2000/svg" xmlns:xlink="http://www.w3.org/1999/xlink" x="0px" y="0px"
	 viewBox="0 0 100 100" enable-background="new 0 0 100 100" xml:space="preserve">
<path fill="#2B231E" d="M78.7,44.2c-1.9-1.1-3.7-2.3-5.6-3.4c-0.9-0.5-1.3-1.1-1.3-2.2c0.1-6,0-11.9,0-17.9c0-3.5-2-5.5-5.5-5.5
	c-10.8,0-21.7,0-32.5,0c-3.7,0-5.6,2-5.6,5.7c0,6,0,11.9,0,17.9c0,0.9-0.2,1.5-1.1,2c-1.9,1-3.6,2.3-5.5,3.3
	c-1.4,0.8-1.8,1.8-1.8,3.3c0,10.8,0,21.6,0,32.4c0,2.8,0.4,3.1,3.3,3.1c8.9,0,17.9,0,26.8,0c9.2,0,18.4,0,27.5,0
	c2.1,0,2.8-0.5,2.8-2.6c0-11.1,0-22.3,0-33.4C80.2,45.6,79.8,44.8,78.7,44.2z M33.6,18.5c10.9,0,21.8,0,32.7,0c1.4,0,2,0.6,2,2.1
	c0,10.1,0,20.3,0,30.4c0,0.8-0.3,1.3-0.9,1.8c-3.3,2.3-6.5,4.6-9.7,7c-0.7,0.5-1.1,0.6-1.8,0c-1-1-2.2-1.9-3.4-2.9
	c3.6-2.6,3.3-5.7-0.6-7.5c-0.9-0.4-1.8-0.8-2.8-1.3c-0.5-0.2-0.8-0.7-0.8-1.3c0.1-0.7,0.6-0.9,1.2-0.9c1,0,2.2-0.7,3,0.7
	c0.3,0.5,1.2,0.4,1.6,0.1c0.7-0.4,0.2-1.2,0.3-1.8c0.1-0.5,0.1-1.1-0.7-1.2c-1.1-0.2-2.7,0.3-2.6-1.9c0-0.5-1.2-0.2-1.8-0.3
	c-0.6,0-0.7,0.3-0.7,0.8c0.1,0.9-0.3,1.2-1.1,1.4c-1.5,0.4-2.4,1.3-2.5,2.9c-0.2,1.6,0.5,2.8,1.9,3.5c1.2,0.6,2.4,1.2,3.7,1.8
	c0.6,0.3,1.1,0.8,0.9,1.5c-0.2,0.8-0.8,1.1-1.4,1.1c-1-0.1-2.2,0.7-2.9-0.9c-0.2-0.4-1-0.2-1.5-0.1c-0.6,0.1-0.4,0.7-0.4,1
	c0,1.1-0.5,2.6,2.1,2.2C46,58.1,44.8,59,43.8,60c-0.5,0.5-0.8,0.2-1.2-0.1c-3.4-2.4-6.8-4.9-10.2-7.3c-0.6-0.4-0.7-0.9-0.7-1.5
	c0-10.2,0-20.4,0-30.6C31.7,19.2,32.3,18.5,33.6,18.5z M23.6,51.3c0.4-0.3,0.7,0.1,0.9,0.3c4.9,3.5,9.8,7,14.6,10.5
	c0.5,0.4,1.5,0.6,0.4,1.5c-5.2,4.4-10.5,8.7-15.9,13.3C23.6,68.1,23.6,59.7,23.6,51.3z M27,78.9c2.4-2,4.5-3.8,6.7-5.6
	c5.1-4.2,10.1-8.5,15.2-12.7c0.7-0.6,1.1-1,2.1-0.2c7.1,6,14.3,12,21.4,18c0.1,0.1,0.2,0.2,0.4,0.5C57.6,78.9,42.5,78.9,27,78.9z
	 M76.3,76.8c-5.4-4.5-10.5-8.9-15.8-13.2c-0.7-0.6-0.6-0.9,0.1-1.4C65.8,58.5,71,54.8,76.3,51C76.3,59.6,76.3,68.1,76.3,76.8z"/>
<path fill="#2B231E" d="M49.8,26.6c-3.9,0-7.9,0-11.8,0c-1.1,0-1.4-0.3-1.4-1.4c0-1,0.1-1.5,1.3-1.4c8,0.1,16.1,0.1,24.1,0
	c1.2,0,1.3,0.5,1.3,1.5c0,1.1-0.3,1.4-1.4,1.4C57.9,26.6,53.9,26.6,49.8,26.6z"/>
<path fill="#2B231E" d="M50.2,28.8c3.9,0,7.9,0,11.8,0c1.1,0,1.4,0.3,1.4,1.4c0,1.1-0.3,1.4-1.4,1.4c-8,0-16,0-24,0
	c-1.1,0-1.4-0.3-1.4-1.4c0-1.1,0.3-1.4,1.4-1.4C42.1,28.8,46.1,28.8,50.2,28.8z"/>
<path fill="#2B231E" d="M50,36.1c-4,0-8,0-12,0c-1.1,0-1.4-0.2-1.4-1.4c0-1.1,0.3-1.4,1.4-1.4c8,0,16,0,23.9,0
	c1.1,0,1.4,0.2,1.4,1.4c0,1.1-0.3,1.4-1.4,1.4C58,36.1,54,36.1,50,36.1z"/>
</svg>
