<?xml version="1.0" encoding="utf-8"?>
<!-- Generator: Adobe Illustrator 18.1.1, SVG Export Plug-In . SVG Version: 6.00 Build 0)  -->
<svg version="1.1" id="Layer_1" xmlns="http://www.w3.org/2000/svg" xmlns:xlink="http://www.w3.org/1999/xlink" x="0px" y="0px"
	 viewBox="0 0 100 100" enable-background="new 0 0 100 100" xml:space="preserve">
<path fill="#2B231E" d="M50,17.1c18.2,0.1,33,15.2,32.9,33.5C82.8,68,67.5,83,50.1,82.9C32,82.9,17,67.8,17.1,49.8
	C17.2,32.4,31.7,17.2,50,17.1z M72.3,68.5c8.6-9.8,9.7-27.9-2-39.2c-12.2-11.8-31.8-10.7-42.6,2.2c-10.1,12.1-7.5,29.2,0.4,37.5
	c5.1-4.9,11.2-7.5,18.4-8.4c-0.7-0.5-1.3-0.8-1.8-1.2c-3.5-2.8-5.4-6.6-6-10.9c-0.6-4.1,0.5-7.6,3.9-10.2c3.3-2.6,7.1-3.1,11-1.9
	c4.1,1.2,6.7,3.9,7.5,8.2c1,5.4-2,12.4-6.6,15.5c-0.3,0.2-0.6,0.4-1.1,0.7C60.7,61.3,66.9,64,72.3,68.5z M30.9,71.9
	c6.2,5.2,13.3,7.5,21.3,6.9c6.6-0.4,12.4-2.9,17.3-7.3C59.2,62.2,40.9,61.7,30.9,71.9z M42.5,46.7c0.1,2.9,0.9,5.6,2.7,7.9
	c2.8,3.6,6.7,3.6,9.5,0c0.1-0.1,0.2-0.3,0.3-0.5c1.8-2.7,2.5-5.6,2.2-8.8c-0.3-3.1-2-5-5-5.5c-1.2-0.2-2.5-0.3-3.7-0.2
	c-3.1,0.2-5.1,1.7-5.8,4.4C42.7,44.9,42.7,45.8,42.5,46.7z"/>
</svg>
