<?xml version="1.0" encoding="utf-8"?>
<!-- Generator: Adobe Illustrator 18.1.1, SVG Export Plug-In . SVG Version: 6.00 Build 0)  -->
<svg version="1.1" id="Layer_1" xmlns="http://www.w3.org/2000/svg" xmlns:xlink="http://www.w3.org/1999/xlink" x="0px" y="0px"
	 viewBox="0 0 100 100" enable-background="new 0 0 100 100" xml:space="preserve">
<path fill="#FFD500" d="M14,85.3c-0.1,0-0.2,0-0.3,0c0-21,0-42,0-63c0.4,0.9,0.3,1.9,0.3,2.8C14,45.1,14,65.2,14,85.3z"/>
<path fill="#FFD500" d="M86.3,85.3c-0.1,0-0.2,0-0.3,0c0-20.1,0-40.1,0-60.2c0-0.9-0.1-1.9,0.3-2.8C86.3,43.3,86.3,64.3,86.3,85.3z"
	/>
<path fill="#FFD500" d="M75,21.5c0,1.3,0,2.6,0,4c-0.1,1.9-1.4,3.3-3.2,3.3c-1.8,0-3.2-1.4-3.3-3.4c0-2.6,0-5.2,0-7.8
	c0-2,1.4-3.3,3.3-3.3c1.8,0,3.1,1.3,3.2,3.3C75,18.8,75,20.2,75,21.5z"/>
<path fill="#FFD500" d="M31.7,21.5c0,1.3,0.1,2.7,0,4c-0.1,1.9-1.5,3.3-3.3,3.2c-1.8,0-3.1-1.4-3.1-3.3c0-2.6,0-5.3,0-7.9
	c0-1.9,1.3-3.2,3.1-3.2c1.8,0,3.2,1.2,3.3,3.2C31.7,18.8,31.7,20.1,31.7,21.5z"/>
<path fill="#FFD500" d="M86.3,22c-0.4-0.6-1-0.7-1.7-0.7c-1.6,0-3.1,0-4.7,0c-1.5,0-1.9,0.5-2,2c0,1,0,2-0.1,3
	c-0.5,3.1-3,5.3-6.1,5.3c-3.1,0-5.7-2.2-6.2-5.4c-0.1-0.7-0.1-1.5-0.1-2.3c0-2.4-0.3-2.7-2.7-2.7c-8.5,0-17,0-25.5,0
	c-0.2,0-0.5,0-0.7,0c-1.5,0.1-1.7,0.3-1.8,1.7c0,0.8,0,1.6-0.1,2.4c-0.4,3.6-3,6.1-6.3,6.2c-3.3,0-6-2.5-6.4-6.2
	C22,24.5,22,23.6,22,22.7c0-1-0.5-1.4-1.4-1.4c-1.8,0-3.7,0-5.5,0c-0.6,0-1.1,0.2-1.4,0.7c0,0.1,0,0.2,0,0.3c0.3,0.5,0.1,1,0.1,1.5
	c0,20,0,40,0,60c0,0.5-0.1,1,0.1,1.6c0.2,0.1,0.2,0.3,0.5,0.3c2,0.1,4,0,6,0c20.7,0,41.4,0,62.1,0c1.2,0,2.5,0.4,3.6-0.4
	c0.1-0.5,0-1,0-1.6c0-20,0-40,0-59.9c0-0.5-0.1-1,0.1-1.5C86.3,22.2,86.3,22.1,86.3,22z M60.6,47.4c0-0.7,0.3-1,1.1-1
	c2.8,0,5.6,0,8.4,0c0.7,0,1,0.3,1,1c0,2.8,0,5.7,0,8.5c0,0.7-0.3,1-1,1c-1.4,0-2.8,0-4.3,0c-1.3,0-2.6,0-4,0c-0.7,0-1.2-0.2-1.2-1
	C60.6,53,60.6,50.2,60.6,47.4z M38.6,72c-3,0-6,0-9.1-0.1c-0.2-3.4-0.2-6.8,0-10.2c3,0,6,0,9.1-0.1c0.8,0,1.1,0.3,1.1,1.1
	c0,2.7,0,5.5,0,8.2C39.7,71.7,39.4,72,38.6,72z M39.7,55.8c0,0.6-0.1,1.1-0.9,1.1c-3,0-6,0-9.1,0c-0.2,0-0.3-0.2-0.5-0.3
	c0.2-2.9,0-5.7,0.1-8.6c0-0.5-0.1-1,0.1-1.5c3,0,6,0,9.1-0.1c0.9,0,1.1,0.4,1.1,1.2C39.7,50.3,39.7,53,39.7,55.8z M55.1,71.9
	c-3,0-6.1,0-9.1,0.1c-0.9,0-1.1-0.4-1.1-1.2c0-2.6,0-5.3,0-7.9c0-0.8,0.2-1.2,1.1-1.2c3,0,6.1,0.1,9.1,0.1
	C55.4,65.1,55.3,68.5,55.1,71.9z M55.3,56.6c-0.5,0.5-1.2,0.3-1.7,0.3c-2.5,0-5,0-7.5,0c-0.8,0-1.2-0.3-1.2-1.1c0-2.7,0-5.5,0-8.2
	c0-0.6,0.1-1.1,0.9-1.1c3,0,6.1,0,9.1,0c0.2,0,0.3,0.2,0.5,0.3C55.2,50,55.2,53.3,55.3,56.6z M69.9,72c-1.4,0-2.7,0-4.1,0
	c-1.3,0-2.6,0-4,0c-0.9,0-1.2-0.3-1.2-1.2c0-2.7,0-5.4,0-8.1c0-0.9,0.4-1.2,1.2-1.2c2.7,0,5.4,0,8.1,0c0.8,0,1.2,0.3,1.2,1.2
	c0,2.7,0,5.4,0,8.1C71.1,71.7,70.7,72,69.9,72z"/>
<path fill="#FFD500" d="M29.6,61.7c0,3.4,0,6.8,0,10.2c-0.4-0.2-0.3-0.6-0.3-0.9c0-2.8,0-5.7,0-8.5C29.3,62.3,29.2,61.9,29.6,61.7z"
	/>
<path fill="#FFD500" d="M55.1,71.9c0-3.4,0-6.8,0-10.2c0.4,0.3,0.3,0.7,0.3,1c0,2.7,0,5.5,0,8.2C55.4,71.3,55.5,71.7,55.1,71.9z"/>
<path fill="#FFD500" d="M55.3,56.6c-0.4-3.3-0.4-6.6,0-9.9C55.3,50,55.3,53.3,55.3,56.6z"/>
</svg>
