<?xml version="1.0" encoding="utf-8"?>
<!-- Generator: Adobe Illustrator 18.1.1, SVG Export Plug-In . SVG Version: 6.00 Build 0)  -->
<svg version="1.1" id="Layer_1" xmlns="http://www.w3.org/2000/svg" xmlns:xlink="http://www.w3.org/1999/xlink" x="0px" y="0px"
	 viewBox="0 0 100 100" enable-background="new 0 0 100 100" xml:space="preserve">
<path fill="#2B231E" d="M84.2,25.9c0.1,0.1,0.3,0.1,0.4,0.2c1.3,0.4,2,1.5,1.8,2.9c-0.2,1.2-1.3,2.1-2.5,2.1c-3.5,0-7,0-10.5,0
	c-17.5,0-34.9,0-52.4,0c-0.2,0-0.5,0-0.8,0c0,9.3,0,18.5,0,27.8c9.7,0,19.3,0,29.1,0c0.3,1.8,0.6,3.5,0.9,5.3c-0.4,0-0.7,0-1.1,0
	c-10.2,0-20.3,0-30.5,0c-2.3,0-3.7-0.7-3.8-3c0-10.9,0-21.7,0-32.6c0.2-1.3,1-2.3,2.2-2.7C39.4,25.9,61.8,25.9,84.2,25.9z"/>
<path fill="#2B231E" d="M65.9,71.8c1.3,1.7,2.5,3.3,3.8,4.9c0.9,1.2,0.9,1.3-0.4,2.2c-1,0.7-2,1.3-3,2c-0.8,0.5-1.1,0.4-1.5-0.4
	c-1.1-1.9-2.2-3.8-3.2-5.7c-0.1-0.2-0.2-0.4-0.4-0.7c-0.9,0.9-1.8,1.8-2.7,2.7c-0.3,0.3-0.8,0.5-1.1,0.4c-0.3-0.1-0.5-0.6-0.6-1
	c-1.2-6.5-2.3-13-3.4-19.5c-0.1-0.3,0.1-0.9,0.3-1c0.2-0.1,0.8,0,1,0.2c3,2.6,5.9,5.2,8.8,7.9c2.1,1.8,4.1,3.7,6.2,5.6
	c0.3,0.3,0.6,0.8,0.5,1c-0.1,0.3-0.6,0.5-1,0.6C68.1,71.4,67,71.6,65.9,71.8z"/>
<path fill="#2B231E" d="M64.7,59c0.2,0,0.4,0,0.5,0c6.1,0,12.2,0,18.3,0c1.8,0,2.9,1.1,2.9,2.7c0,1.4-1.1,2.5-2.7,2.5
	c-4.3,0-8.6,0-12.9,0c-0.2,0-0.5-0.1-0.7-0.2c-1.8-1.6-3.6-3.2-5.3-4.8C64.7,59.2,64.7,59.2,64.7,59z"/>
<path fill="#2B231E" d="M32.1,48.9c-1,1.2-2.3,1.4-3.7,1.1c-1.2-0.3-2.1-1.1-2.2-2.3c-0.2-2-0.2-4-0.2-6c0-0.7,0.5-0.9,1.1-0.9
	c0.6,0,1,0.3,1,1c0,1.2,0,2.5,0,3.7c0,0.5,0,0.9,0.1,1.4c0.1,0.8,0.6,1.2,1.4,1.2c0.8,0,1.3-0.4,1.3-1.2c0.1-1.6,0.1-3.3,0.1-4.9
	c0-0.6,0.3-1,0.9-1.1c0.7-0.2,1.3,0.3,1.3,1c0,1.5,0,3,0,4.5c0,1,0.4,1.5,1,1.7c1.1,0.2,1.8-0.3,1.8-1.5c0.1-1.5,0-3.1,0-4.6
	c0-0.8,0.6-1.4,1.3-1.1c0.3,0.1,0.7,0.6,0.8,0.9c0.1,1.7,0,3.5,0,5.2c0,1.3-0.6,2.5-1.9,2.9c-1.4,0.4-2.9,0.4-4-0.9
	C32.3,49,32.2,48.9,32.1,48.9z"/>
<path fill="#2B231E" d="M46.7,49.1c-1,0.4-1.7,0.8-2.5,0.9c-2.5,0.3-3.7-1-3.8-3.5c0-1.5,0-3.1,0-4.6c0-0.8,0.4-1.2,1.1-1.2
	c0.7,0,1,0.4,1,1.1c0,1.5,0,3,0,4.5c0,1,0.4,1.5,1.1,1.6c1,0.2,1.7-0.2,1.8-1.3c0.1-1.6,0.1-3.2,0.1-4.9c0-0.7,0.4-1,1-1.1
	c0.7-0.1,1.1,0.4,1.1,1.1c0,1.5,0,3.1,0,4.6c0,1.3,0.9,1.9,2,1.5c0.7-0.3,0.8-1,0.9-1.7c0-1.4,0-2.8,0-4.2c0-1,0.3-1.4,1-1.4
	c0.7,0,1.1,0.4,1.1,1.3c0,1.5,0,3,0,4.5c0,1.4-0.4,2.7-1.8,3.2C49.3,50.3,47.9,50.3,46.7,49.1C46.6,49,46.6,49,46.7,49.1z"/>
<path fill="#2B231E" d="M61,49c-0.9,0.4-1.7,0.9-2.5,1c-2.5,0.3-3.7-0.9-3.8-3.5c-0.1-1.6,0-3.1,0-4.7c0-0.7,0.4-1,1.1-1
	c0.7,0,1.1,0.4,1.1,1.1c0,1.6,0,3.2,0,4.8c0,1.2,1,1.8,2.1,1.3c0.7-0.3,0.8-1,0.8-1.7c0-1.4,0-2.8,0-4.2c0-0.8,0.3-1.3,1.1-1.3
	c0.7,0,1,0.4,1,1.2c0,1.4,0,2.8,0,4.2c0,0.6,0.2,1.3,0.6,1.6c0.8,0.7,2.1,0.1,2.2-1c0.1-1.7,0.1-3.3,0.1-5c0-0.9,0.7-1.3,1.5-0.9
	c0.3,0.1,0.6,0.5,0.6,0.8c0,1.8,0,3.7-0.1,5.5c-0.1,1.3-0.7,2.3-2,2.7C63.4,50.3,62.1,50.2,61,49C61,49,60.9,48.9,61,49z"/>
<path fill="#2B231E" d="M73.6,45.4c0-2.5,0-5.1,0-7.6c0-0.2,0-0.5,0.1-0.6c0.2-0.3,0.4-0.6,0.7-0.6c0.2,0,0.5,0.3,0.6,0.6
	c0.1,0.2,0.1,0.5,0.1,0.8c0,5,0,10,0,15c0,0.6,0.1,1.4-0.8,1.4c-0.8,0-0.7-0.8-0.7-1.4C73.6,50.4,73.6,47.9,73.6,45.4
	C73.6,45.4,73.6,45.4,73.6,45.4z"/>
<path fill="#2B231E" d="M71,49c0,0.7-0.4,1.1-1.1,1.1c-0.8,0-1.2-0.4-1.2-1.1c0-0.8,0.4-1.2,1.2-1.1C70.6,47.9,71,48.2,71,49z"/>
</svg>
