<?xml version="1.0" encoding="utf-8"?>
<!-- Generator: Adobe Illustrator 18.1.1, SVG Export Plug-In . SVG Version: 6.00 Build 0)  -->
<svg version="1.1" id="Layer_1" xmlns="http://www.w3.org/2000/svg" xmlns:xlink="http://www.w3.org/1999/xlink" x="0px" y="0px"
	 viewBox="-25 27 48 48" enable-background="new -25 27 48 48" xml:space="preserve">
<path fill="none" d="M-25,27h48v48h-48V27z"/>
<path fill="#29166F" d="M-8.8,53.7l5.7-5.7l-14-14c-3.1,3.1-3.1,8.2,0,11.3L-8.8,53.7z M4.8,50.1c3.1,1.4,7.4,0.4,10.5-2.8
	c3.8-3.8,4.6-9.3,1.6-12.2c-2.9-2.9-8.4-2.2-12.2,1.6c-3.2,3.2-4.2,7.5-2.8,10.5l-19.5,19.5l2.8,2.8L-1,55.8l13.8,13.8l2.8-2.8
	L1.8,53C1.8,53,4.8,50.1,4.8,50.1z"/>
</svg>
