<?xml version="1.0" encoding="utf-8"?>
<!-- Generator: Adobe Illustrator 18.1.1, SVG Export Plug-In . SVG Version: 6.00 Build 0)  -->
<svg version="1.1" xmlns="http://www.w3.org/2000/svg" xmlns:xlink="http://www.w3.org/1999/xlink" x="0px" y="0px"
	 viewBox="0 0 500 516" enable-background="new 0 0 500 516" xml:space="preserve">
<g id="Layer_2">
</g>
<g id="Layer_1">
	<path fill="#FFFFFF" d="M452,117.9c0-4-1.2-4.7-4.9-4.7c-132,0.1-263.9,0.1-395.9,0c-4,0-5.1,0.8-5.1,5c0.1,97.1,0.1,194.3,0,291.4
		c0,4.2,1.2,5,5.1,5c65.9-0.1,131.8-0.1,197.7-0.1c66.1,0,132.1,0,198.2,0.1c3.7,0,4.9-0.8,4.9-4.7
		C451.8,312.5,451.8,215.2,452,117.9z M402.9,153c-1.9,1.7-3.2,3-4.6,4.1c-48.7,40.3-97.5,80.5-146.1,120.9
		c-2.6,2.2-4.1,2.5-6.9,0.2c-49.7-41.4-99.6-82.6-149.4-123.9c-0.2-0.2-0.4-0.5-1-1.3C197.7,153,299.8,153,402.9,153z M408.2,374.9
		c-106.2-0.1-212.3-0.1-318.5-0.1c-2.1,0-4,0.5-4-3c0.1-56.9,0.1-113.7,0.1-171.5c2.5,2,4.4,3.5,6.4,5.1
		c50.8,42.1,101.7,84.2,152.4,126.5c3.2,2.7,5,2.6,8.1,0c51.7-42.9,103.5-85.7,155.2-128.5c1.2-1,2.5-1.9,4.4-3.4
		c0,57.6,0,114.3,0.1,171C412.3,374.5,411.2,374.9,408.2,374.9z"/>
</g>
</svg>
