<?xml version="1.0" encoding="utf-8"?>
<!-- Generator: Adobe Illustrator 18.1.1, SVG Export Plug-In . SVG Version: 6.00 Build 0)  -->
<svg version="1.1" id="Layer_1" xmlns="http://www.w3.org/2000/svg" xmlns:xlink="http://www.w3.org/1999/xlink" x="0px" y="0px"
	 viewBox="0 0 250 250" enable-background="new 0 0 250 250" xml:space="preserve">
<path fill="#81CC68" d="M111.6,186.7h24.9v-12.6h12.6c6.9,0,12.6-5.7,12.6-12.6v-37.3c0-6.9-5.7-12.6-12.6-12.6h-37.5V99h50.1V74.1
	h-24.9V61.5h-24.9v12.6H99.3c-6.9,0-12.6,5.7-12.6,12.6v37.5c0,6.9,5.7,12.6,12.6,12.6h37.5v12.6H86.7v24.9h24.9V186.7z M224.1,24.3
	H23.9C10.1,24.3-1,35.3-1,49.2v150.1c0,13.8,11.1,24.9,24.9,24.9h200.3c13.8,0,24.9-11.1,24.9-24.9V49.2
	C249.3,35.3,238.3,24.3,224.1,24.3z M224.1,199.3H23.9V49.2h200.3L224.1,199.3L224.1,199.3z"/>
</svg>
