<?xml version="1.0" encoding="utf-8"?>
<!-- Generator: Adobe Illustrator 18.1.1, SVG Export Plug-In . SVG Version: 6.00 Build 0)  -->
<svg version="1.1" id="Layer_1" xmlns="http://www.w3.org/2000/svg" xmlns:xlink="http://www.w3.org/1999/xlink" x="0px" y="0px"
	 viewBox="0 0 250 250" enable-background="new 0 0 250 250" xml:space="preserve">
<path fill="#81CC68" d="M125.1,55.5V0H0.1v250h249.8V55.5H125.1z M50.1,222.3h-25v-27.8h25V222.3z M50.1,166.5h-25v-27.8h25V166.5z
	 M50.1,111h-25V83.3h25V111z M50.1,55.5h-25v-28h25V55.5z M100.1,222.3h-25v-27.8h25V222.3z M100.1,166.5h-25v-27.8h25V166.5z
	 M100.1,111h-25V83.3h25V111z M100.1,55.5h-25v-28h25V55.5z M224.9,222.3h-100v-27.8h25v-27.7h-25V139h25v-27.8h-25V83.5h100V222.3z
	 M199.9,111h-25v27.8h25V111z M199.9,166.5h-25v27.8h25V166.5z"/>
</svg>
