<?xml version="1.0" standalone="no"?>
<!DOCTYPE svg PUBLIC "-//W3C//DTD SVG 20010904//EN"
 "http://www.w3.org/TR/2001/REC-SVG-20010904/DTD/svg10.dtd">
<svg version="1.0" xmlns="http://www.w3.org/2000/svg"
 width="512.000000pt" height="512.000000pt" viewBox="0 0 512.000000 512.000000"
 preserveAspectRatio="xMidYMid meet">

<g transform="translate(0.000000,512.000000) scale(0.100000,-0.100000)"
fill="#000000" stroke="none">
<path d="M10 2555 l0 -2555 2555 0 2555 0 0 2555 0 2555 -2555 0 -2555 0 0
-2555z m280 2291 c0 -3 -4 -8 -10 -11 -5 -3 -10 -1 -10 4 0 6 5 11 10 11 6 0
10 -2 10 -4z m95 -106 l-110 -110 -3 61 c-3 62 -3 62 45 111 47 48 48 48 112
48 l66 0 -110 -110z m100 -100 l-210 -210 -3 62 -3 62 148 148 148 148 65 0
65 0 -210 -210z m100 -100 l-310 -310 -3 62 -3 62 248 248 248 248 65 0 65 0
-310 -310z m100 -100 l-410 -410 -3 62 -3 62 348 348 348 348 65 0 65 0 -410
-410z m100 -100 l-510 -510 -3 62 -3 62 448 448 448 448 65 0 65 0 -510 -510z
m100 -100 l-610 -610 -3 62 -3 62 548 548 548 548 65 0 65 0 -610 -610z m640
439 l-170 -171 80 48 c56 33 117 83 205 170 l125 124 65 0 64 0 -74 -76 c-50
-50 -67 -72 -50 -65 74 28 99 44 145 90 49 51 49 51 114 51 l65 0 -29 -30
c-16 -16 -24 -30 -18 -30 22 0 79 24 99 41 15 14 36 19 83 19 44 0 60 -3 55
-12 -5 -8 0 -9 17 -3 41 14 589 16 586 2 -3 -18 48 -20 63 -3 9 12 31 16 78
16 l65 0 -21 -23 c-29 -31 -28 -37 6 -37 18 0 38 11 57 30 26 27 35 30 94 30
l65 0 -42 -43 c-23 -23 -42 -46 -42 -50 0 -4 13 -7 28 -7 20 0 41 14 77 50 49
50 49 50 114 50 l65 0 -69 -70 c-38 -38 -67 -71 -64 -73 2 -3 13 -7 24 -11 16
-5 38 11 100 74 l80 80 65 0 65 0 -99 -99 c-96 -96 -98 -99 -76 -111 21 -11
30 -4 134 99 l111 111 65 0 65 0 -129 -129 c-122 -122 -140 -151 -98 -151 10
0 80 63 157 140 l140 140 65 0 65 0 -169 -169 c-162 -162 -168 -169 -146 -181
21 -11 34 -1 204 169 l181 181 65 0 65 0 -208 -208 c-163 -163 -205 -210 -195
-220 7 -7 17 -12 23 -12 5 0 109 99 230 220 l220 220 65 0 65 0 -250 -250
c-237 -237 -249 -251 -232 -267 16 -17 30 -4 285 250 l267 267 65 0 65 0 -294
-294 c-212 -212 -292 -298 -288 -310 4 -9 12 -16 19 -16 7 0 153 139 323 310
309 310 310 310 352 310 83 0 68 -20 -277 -365 -176 -176 -320 -325 -320 -330
0 -6 5 -16 12 -23 10 -10 78 53 320 295 l308 308 0 -65 0 -65 -277 -277 c-264
-264 -277 -279 -260 -295 16 -17 30 -5 277 242 l260 260 0 -65 0 -65 -232
-232 c-221 -221 -232 -234 -215 -250 16 -17 28 -7 232 197 l215 215 0 -65 0
-65 -185 -185 c-102 -102 -185 -192 -185 -202 0 -44 32 -21 196 143 l174 174
0 -65 0 -65 -151 -151 c-141 -142 -150 -153 -139 -174 12 -22 17 -18 151 116
l139 139 0 -65 0 -65 -115 -115 c-63 -63 -115 -119 -115 -125 0 -5 5 -17 10
-25 8 -12 30 5 115 90 l105 105 0 -65 0 -65 -85 -85 c-47 -47 -85 -89 -85 -95
0 -5 5 -17 10 -25 8 -12 24 -1 85 60 l75 74 0 -64 0 -64 -59 -61 c-52 -53 -58
-63 -50 -84 10 -25 10 -24 59 24 l50 49 0 -64 c0 -60 -2 -66 -36 -101 -30 -31
-35 -42 -30 -65 l7 -27 30 29 29 28 0 -64 c0 -49 -4 -68 -19 -84 -23 -25 -19
-85 4 -66 19 16 19 -708 0 -730 -7 -8 -16 -26 -20 -40 -19 -70 -20 -67 9 -41
l26 24 0 -63 c0 -63 -1 -66 -44 -110 -26 -26 -54 -68 -66 -100 l-21 -55 65 65
66 64 0 -64 0 -65 -104 -105 c-72 -73 -115 -126 -141 -175 l-38 -70 142 140
141 140 0 -65 0 -65 -667 -667 -668 -668 -65 0 -65 0 140 141 140 142 -70 -38
c-49 -26 -102 -69 -175 -141 l-105 -104 -65 0 -64 0 64 66 65 65 -55 -21 c-32
-12 -74 -40 -100 -66 -44 -43 -47 -44 -110 -44 l-63 0 24 26 c26 29 29 28 -41
9 -14 -4 -32 -13 -40 -20 -22 -19 -746 -19 -730 0 19 23 -41 27 -66 4 -16 -15
-35 -19 -84 -19 l-64 0 28 29 29 30 -27 7 c-23 5 -34 0 -65 -30 -35 -34 -41
-36 -101 -36 l-64 0 49 50 c48 49 49 49 24 59 -21 8 -31 2 -84 -50 l-61 -59
-64 0 -64 0 74 75 c61 61 72 77 60 85 -8 5 -20 10 -25 10 -6 0 -48 -38 -95
-85 l-85 -85 -65 0 -65 0 105 105 c85 85 102 107 90 115 -8 5 -20 10 -25 10
-6 0 -62 -52 -125 -115 l-115 -115 -65 0 -65 0 138 138 c108 108 135 140 125
150 -7 7 -17 12 -23 12 -5 0 -78 -67 -160 -150 l-150 -150 -65 0 -65 0 174
174 c164 164 187 196 143 196 -10 0 -100 -83 -202 -185 l-185 -185 -65 0 -65
0 215 215 c204 204 214 216 197 232 -16 17 -29 6 -250 -215 l-232 -232 -65 0
-65 0 260 260 c247 247 259 261 242 277 -16 17 -31 4 -295 -260 l-277 -277
-65 0 -65 0 308 308 c242 242 305 310 295 320 -7 7 -17 12 -23 12 -5 0 -154
-144 -330 -320 -345 -345 -365 -360 -365 -277 0 42 0 43 310 352 171 170 310
315 310 320 0 6 -5 16 -12 23 -10 10 -76 -51 -310 -285 l-298 -298 0 65 0 65
267 267 c254 255 267 269 250 285 -16 17 -30 5 -267 -232 l-250 -250 0 65 0
65 220 220 c121 121 220 225 220 230 0 6 -5 16 -12 23 -10 10 -57 -32 -220
-195 l-208 -208 0 65 0 65 181 181 c170 170 180 183 169 204 -12 22 -19 16
-181 -146 l-169 -169 0 65 0 65 140 140 c77 77 140 147 140 157 0 42 -29 24
-151 -98 l-129 -129 0 65 0 65 111 111 c103 104 110 113 99 134 -12 22 -15 20
-111 -76 l-99 -99 0 65 0 65 80 80 c63 62 79 84 74 100 -4 11 -8 22 -11 24 -2
3 -35 -26 -73 -64 l-70 -69 0 65 c0 65 0 65 50 114 36 36 50 57 50 77 0 15 -3
28 -7 28 -4 0 -27 -19 -50 -42 l-43 -42 0 65 c0 59 3 68 30 94 19 19 30 39 30
57 0 34 -6 35 -37 6 l-23 -21 0 65 c0 47 4 69 16 78 17 15 15 66 -3 63 -14 -3
-12 545 2 586 6 17 5 22 -3 17 -9 -5 -12 11 -12 55 0 47 5 68 19 83 17 20 41
77 41 99 0 6 -14 -2 -30 -18 l-30 -29 0 65 c0 65 0 65 51 114 28 28 55 59 59
70 5 11 16 38 25 60 16 39 15 39 -59 -35 l-76 -74 0 64 0 65 124 125 c87 88
137 149 170 205 l48 80 -171 -170 -171 -170 0 65 0 65 647 647 648 648 65 0
65 0 -170 -171z m2758 -3841 l-568 -568 -65 0 -65 0 630 630 630 630 3 -62 3
-62 -568 -568z m100 -100 l-468 -468 -65 0 -65 0 530 530 530 530 3 -62 3 -62
-468 -468z m100 -100 l-368 -368 -65 0 -65 0 430 430 430 430 3 -62 3 -62
-368 -368z m100 -100 l-268 -268 -65 0 -65 0 330 330 330 330 3 -62 3 -62
-268 -268z m100 -100 l-168 -168 -65 0 -65 0 230 230 230 230 3 -62 3 -62
-168 -168z m100 -100 l-67 -68 -66 0 -65 0 130 130 130 130 3 -62 3 -61 -68
-69z m67 -38 c0 -27 -3 -30 -32 -30 l-32 0 29 30 c16 17 30 30 32 30 2 0 3
-13 3 -30z"/>
<path d="M1488 3643 c-762 -764 -897 -903 -900 -930 -3 -18 -2 -33 1 -33 3 0
412 406 907 903 866 866 951 957 902 957 -7 0 -416 -404 -910 -897z"/>
<path d="M2175 4508 c-19 -6 -304 -284 -786 -765 -634 -633 -759 -762 -768
-795 -7 -22 -11 -42 -9 -44 2 -2 368 361 813 806 446 446 803 810 795 809 -8
0 -28 -5 -45 -11z"/>
<path d="M2743 4498 c-22 -24 -41 -88 -26 -88 5 0 33 25 63 55 l54 55 -35 0
c-24 0 -42 -7 -56 -22z"/>
<path d="M2833 4388 c-80 -82 -113 -122 -118 -145 -4 -18 -3 -33 2 -33 4 0 71
62 147 139 136 136 145 151 93 151 -7 0 -62 -51 -124 -112z"/>
<path d="M1912 4436 c-47 -20 -127 -96 -623 -592 -432 -432 -575 -580 -590
-613 -11 -25 -18 -48 -17 -53 2 -4 293 282 648 637 355 355 643 645 640 644
-3 0 -29 -11 -58 -23z"/>
<path d="M2913 4268 c-145 -147 -193 -201 -198 -225 -4 -18 -3 -33 2 -33 4 0
105 97 223 215 172 172 212 217 200 225 -8 5 -20 10 -25 10 -6 0 -96 -87 -202
-192z"/>
<path d="M2988 4142 c-207 -207 -268 -274 -273 -299 -4 -18 -3 -33 2 -33 11 0
588 578 583 583 -3 3 -14 7 -25 11 -17 5 -70 -44 -287 -262z"/>
<path d="M1487 3442 c-762 -763 -907 -911 -907 -935 0 -15 3 -27 8 -27 4 0
413 406 909 903 726 726 903 908 908 935 4 17 3 32 -2 32 -4 0 -416 -408 -916
-908z"/>
<path d="M3058 4013 c-264 -266 -338 -345 -343 -370 -4 -18 -3 -33 2 -33 4 0
170 162 367 359 330 330 357 360 338 370 -11 6 -22 11 -24 11 -2 0 -155 -152
-340 -337z"/>
<path d="M1514 4241 c-68 -45 -149 -120 -335 -308 -217 -218 -294 -308 -338
-390 -6 -13 -10 -23 -9 -23 2 0 179 176 393 390 214 215 387 390 383 390 -3 0
-46 -27 -94 -59z"/>
<path d="M3123 3878 c-317 -319 -403 -410 -408 -435 -4 -18 -3 -33 2 -33 4 0
199 191 432 424 389 389 422 425 403 435 -11 6 -22 11 -24 11 -2 0 -184 -181
-405 -402z"/>
<path d="M3183 3738 c-366 -368 -463 -470 -468 -495 -4 -18 -3 -33 2 -33 4 0
226 218 493 485 385 386 482 487 470 495 -8 5 -20 10 -25 10 -6 0 -218 -208
-472 -462z"/>
<path d="M1497 3252 c-852 -852 -898 -900 -895 -930 3 -31 39 4 900 865 721
723 898 904 903 931 4 17 3 32 -2 32 -4 0 -412 -404 -906 -898z"/>
<path d="M3243 3598 c-415 -417 -523 -530 -528 -555 -4 -18 -3 -33 2 -33 4 0
251 243 547 539 468 468 538 542 527 555 -8 9 -16 16 -20 16 -3 0 -241 -235
-528 -522z"/>
<path d="M3298 3453 c-468 -469 -578 -584 -583 -611 -6 -31 -5 -33 12 -23 10
5 281 273 602 595 507 507 583 587 572 600 -8 9 -16 16 -20 16 -3 0 -266 -260
-583 -577z"/>
<path d="M1508 3063 c-841 -841 -887 -889 -880 -915 7 -27 46 11 889 855 709
710 883 888 888 915 4 17 3 32 -2 32 -4 0 -407 -399 -895 -887z"/>
<path d="M3480 3435 c-272 -272 -491 -495 -487 -495 5 0 36 16 70 35 49 27
157 129 506 479 386 386 443 447 432 460 -8 9 -16 16 -20 16 -3 0 -229 -223
-501 -495z"/>
<path d="M3720 3475 c-195 -195 -351 -355 -346 -355 5 0 34 14 65 31 40 23
142 117 359 333 166 165 302 306 302 312 0 6 -6 16 -13 22 -10 9 -94 -70 -367
-343z"/>
<path d="M1528 2883 c-747 -747 -867 -871 -862 -890 4 -13 9 -23 13 -23 3 0
392 386 863 858 689 689 858 863 863 890 4 17 3 32 -2 32 -4 0 -398 -390 -875
-867z"/>
<path d="M3945 3499 l-210 -211 71 37 c57 29 100 66 229 195 137 137 157 161
146 174 -8 9 -16 16 -20 16 -3 0 -101 -95 -216 -211z"/>
<path d="M4175 3529 l-60 -61 73 37 c59 30 73 41 70 58 -5 36 -22 29 -83 -34z"/>
<path d="M1553 2708 c-790 -792 -841 -844 -832 -868 9 -23 55 21 844 810 670
672 835 841 840 868 4 17 3 32 -2 32 -4 0 -387 -379 -850 -842z"/>
<path d="M1586 2541 c-786 -786 -831 -834 -791 -848 6 -2 369 356 807 794 640
641 798 804 803 831 4 17 3 32 -2 32 -4 0 -372 -364 -817 -809z"/>
<path d="M4240 3165 c-56 -29 -132 -100 -555 -524 -466 -467 -489 -492 -472
-508 17 -17 43 8 560 525 298 298 540 542 537 542 -3 -1 -34 -16 -70 -35z"/>
<path d="M3860 2615 c-537 -538 -564 -566 -547 -582 17 -17 44 9 578 543 479
479 560 564 554 583 -3 11 -9 21 -13 21 -4 0 -261 -254 -572 -565z"/>
<path d="M1616 2371 c-740 -740 -778 -780 -764 -799 13 -20 49 14 780 746 615
616 768 773 773 800 4 17 3 32 -2 32 -4 0 -359 -350 -787 -779z"/>
<path d="M3865 2990 c-58 -33 -129 -98 -420 -389 -333 -334 -349 -352 -332
-368 16 -17 37 2 425 390 224 224 405 407 402 407 -3 0 -36 -18 -75 -40z"/>
<path d="M3935 2490 c-514 -514 -539 -541 -522 -557 16 -17 43 8 547 512 514
514 554 559 522 579 -5 3 -251 -238 -547 -534z"/>
<path d="M1656 2211 c-701 -701 -738 -739 -726 -761 12 -22 45 10 740 706 585
585 730 735 735 762 4 17 3 32 -2 32 -4 0 -340 -332 -747 -739z"/>
<path d="M4000 2355 c-480 -480 -504 -506 -487 -522 16 -17 41 6 512 477 414
414 495 499 495 522 0 16 -3 28 -8 28 -4 0 -234 -227 -512 -505z"/>
<path d="M3492 2818 c-48 -25 -108 -79 -279 -250 -207 -207 -217 -219 -200
-235 16 -17 30 -5 285 250 147 147 264 267 261 267 -3 0 -33 -14 -67 -32z"/>
<path d="M1701 2056 c-673 -673 -716 -719 -676 -733 6 -2 317 304 692 679 546
547 683 689 688 716 4 17 3 32 -2 32 -4 0 -320 -312 -702 -694z"/>
<path d="M3123 2648 c-41 -21 -90 -60 -145 -115 -78 -79 -82 -84 -65 -100 16
-17 24 -11 150 115 72 72 130 132 127 132 -3 0 -33 -15 -67 -32z"/>
<path d="M4060 2215 c-442 -442 -464 -466 -447 -482 16 -17 39 4 472 437 380
380 455 459 455 482 0 16 -3 28 -8 28 -4 0 -216 -209 -472 -465z"/>
<path d="M1742 1897 c-622 -622 -652 -654 -635 -670 18 -15 50 15 661 626 538
538 642 647 642 670 0 15 -3 27 -8 27 -4 0 -301 -294 -660 -653z"/>
<path d="M4115 2070 c-399 -399 -419 -421 -402 -437 16 -17 37 2 416 381 332
332 400 405 406 434 3 19 5 36 3 38 -2 2 -193 -186 -423 -416z"/>
<path d="M1827 1782 c-608 -608 -637 -639 -620 -655 18 -15 50 14 657 622 622
622 667 671 614 671 -7 0 -300 -287 -651 -638z"/>
<path d="M1930 1685 c-604 -604 -634 -636 -617 -652 16 -17 48 13 652 617 364
363 634 641 633 650 -2 8 -10 16 -18 18 -9 1 -287 -269 -650 -633z"/>
<path d="M4155 1910 c-342 -342 -359 -361 -342 -377 16 -17 34 -1 351 316 303
303 334 337 343 377 6 24 10 44 9 44 -1 0 -163 -162 -361 -360z"/>
<path d="M2035 1590 c-627 -628 -647 -649 -590 -650 6 0 291 281 634 624 608
608 652 656 599 656 -7 0 -297 -284 -643 -630z"/>
<path d="M2147 1502 c-487 -487 -615 -620 -605 -630 6 -6 17 -12 23 -12 5 0
286 276 624 614 598 598 642 646 589 646 -7 0 -291 -278 -631 -618z"/>
<path d="M2260 1415 c-602 -603 -622 -624 -565 -625 6 0 280 270 609 599 520
520 598 602 587 615 -8 9 -16 16 -20 16 -3 0 -278 -272 -611 -605z"/>
<path d="M4175 1730 c-266 -266 -279 -281 -262 -297 16 -17 29 -6 262 227 208
209 247 253 264 298 12 28 20 52 18 52 -1 0 -128 -126 -282 -280z"/>
<path d="M2381 1336 c-346 -346 -581 -588 -577 -595 4 -6 15 -11 24 -11 9 0
278 261 596 579 503 503 578 582 567 595 -8 9 -16 16 -20 16 -3 0 -269 -263
-590 -584z"/>
<path d="M2501 1256 c-539 -539 -563 -564 -541 -576 22 -12 52 17 583 548 487
487 559 563 548 576 -8 9 -16 16 -20 16 -3 0 -260 -254 -570 -564z"/>
<path d="M2626 1181 c-513 -513 -537 -539 -510 -544 27 -5 62 28 558 523 460
459 528 531 517 544 -8 9 -16 16 -20 16 -3 0 -248 -242 -545 -539z"/>
<path d="M4155 1510 c-151 -152 -159 -161 -142 -177 16 -17 22 -13 108 72 87
86 147 162 183 233 9 17 15 32 14 32 -2 0 -75 -72 -163 -160z"/>
<path d="M2761 1116 c-484 -484 -504 -505 -477 -512 27 -6 56 21 524 489 430
430 494 498 483 511 -8 9 -16 16 -20 16 -3 0 -233 -227 -510 -504z"/>
<path d="M2900 1055 c-449 -450 -464 -465 -430 -465 33 0 63 28 484 449 390
390 448 452 437 465 -8 9 -16 16 -20 16 -3 0 -215 -209 -471 -465z"/>
<path d="M3050 1005 c-402 -402 -414 -415 -380 -415 33 0 61 26 434 399 346
346 398 402 387 415 -8 9 -16 16 -20 16 -3 0 -193 -187 -421 -415z"/>
<path d="M3210 965 c-195 -195 -350 -355 -345 -355 56 0 88 28 409 349 286
286 328 332 317 345 -8 9 -16 16 -20 16 -3 0 -166 -160 -361 -355z"/>
<path d="M3390 944 c-164 -164 -265 -273 -251 -269 66 20 103 51 325 274 207
207 238 242 227 255 -8 9 -16 16 -20 16 -3 0 -130 -124 -281 -276z"/>
<path d="M3610 964 c-85 -86 -144 -151 -130 -144 68 34 163 107 239 184 72 73
83 87 71 100 -7 9 -15 16 -19 16 -3 0 -76 -70 -161 -156z"/>
</g>
</svg>
