<?xml version="1.0" encoding="utf-8"?>
<!-- Generator: Adobe Illustrator 18.1.1, SVG Export Plug-In . SVG Version: 6.00 Build 0)  -->
<svg version="1.1" xmlns="http://www.w3.org/2000/svg" xmlns:xlink="http://www.w3.org/1999/xlink" x="0px" y="0px"
	 viewBox="0 0 800 800" enable-background="new 0 0 800 800" xml:space="preserve">
<g id="Layer_1" display="none">
	
		<image display="inline" overflow="visible" width="450" height="470" xlink:href="5F1B1FE4.jpg"  transform="matrix(1 0 0 1 176 165)">
	</image>
</g>
<g id="Layer_2">
	<ellipse fill="#F25A4F" cx="400" cy="400" rx="362.1" ry="363.8"/>
</g>
<g id="Layer_4">
	<path fill="#CF3535" d="M762,407.4L511.8,157.2l-34.2,19.2l-13.3-32.5l-32.5-21.7l-38.4,60.1l-13.3-4.2l-30.9-28.4l-30,44.2
		l-17.5,25.9l-35.9-28.4l-19.2,100.1v364.6l105.9,104.5c15.6,2.1,31.5,3.1,47.6,3.1C597.5,763.8,758.1,604.9,762,407.4z"/>
</g>
<g id="Layer_3">
	<path fill="#FFFFFF" d="M500.1,664.5c0,0,16.7,0,35-23.4l75.1-116c0,0,15-30.9,10-122.6l-2.5-45.9c0,0-4.2-15.9-31.7-16.7
		c-27.5-0.8-29.2,17.5-29.2,17.5l-2.5,88.4c0,0,1.7,13.3-19.2,44.2S514.3,521,514.3,521l-2.5-361.3c0,0-5-18.4-30.9-18.4
		s-26.7,13.3-26.7,13.3v201.1l-20.9,0.8V118.8c0,0-8.3-16.7-29.2-16.7c-20.9,0-29.2,16.7-29.2,16.7v237.8l-19.2-0.8V148
		c0,0-7.5-13.3-29.2-14.2s-30.9,11.7-30.9,11.7v211.1l-20.9-0.8V197.3c0,0-1.7-17.5-27.5-17.5s-31.7,17.5-31.7,17.5v413.8
		c0,0,11.7,45.1,46.7,53.4"/>
</g>
</svg>
