<?xml version="1.0" encoding="utf-8"?>
<!-- Generator: Adobe Illustrator 18.1.1, SVG Export Plug-In . SVG Version: 6.00 Build 0)  -->
<svg version="1.1" id="Layer_1" xmlns="http://www.w3.org/2000/svg" xmlns:xlink="http://www.w3.org/1999/xlink" x="0px" y="0px"
	 viewBox="0 0 250 250" enable-background="new 0 0 250 250" xml:space="preserve">
<g>
	<path fill="#FFFFFF" d="M29.6,68.8c1.6-1.2,3-2.8,4.7-3.7c7.6-3.8,15.8-5.6,24.2-6.7c16.1-2.1,32.2-1.6,48.2,1.5
		c8.2,1.6,16.2,3.9,23.7,7.9c2,1.1,3,2.5,3,4.9c0,34.8,0,69.6,0,104.3c0,2.9-1.5,4.7-3.9,4.7c-2.4,0.1-4.1-1.9-4.1-4.8
		c0-33.5,0-67.1,0-100.6c0-1.7-0.5-2.5-2.1-3.2c-8.9-3.9-18.4-5.9-28-6.9c-11.2-1.3-22.5-1.3-33.7,0C54,67,46.5,68.5,39.4,71.5
		c-1.3,0.5-1.9,1.2-1.9,2.7c0.1,38.3,0,76.7,0,115c0,0.6,0,1.1,0,1.8c0.5-0.1,0.8,0,1.1-0.2c9.4-3.4,19.2-4.5,29.2-4.7
		c18.2-0.3,36,2.1,53.5,7.1c2.7,0.8,5.9,0.6,8.6-0.1c15.4-4.4,31-6.7,47-7c10.6-0.2,21,0.5,31.3,3.4c0.8,0.2,1.7,0.5,2.5,0.8
		c0.8,0.2,1.5,0.5,2.5,0.9c0-0.9,0-1.6,0-2.2c0-38.2,0-76.4,0-114.6c0-1.7-0.6-2.4-2-3c-9.6-4-19.6-5.5-29.9-6
		c-11.6-0.5-23.1,0.3-34.4,3.3c-1.4,0.4-2.7,0.8-4.1,1.2c-2.4,0.7-4.5-0.3-5.2-2.5c-0.7-2.1,0.3-4.3,2.7-5c4.8-1.3,9.6-2.8,14.5-3.6
		c17.9-2.9,35.6-2.5,53.1,2.8c3.7,1.1,7.1,2.9,10.6,4.5c1.9,0.8,2.7,2.4,2.7,4.5c0,42.1,0,84.2,0,126.2c0,3.9-3,5.9-6.2,4.1
		c-7.6-4.2-15.9-5.8-24.4-6.4c-20.3-1.5-40.1,1.1-59.6,6.6c-3.5,1-7.7,1-11.2,0c-17.9-5.1-36.2-7.6-54.8-6.9c-8.6,0.3-17,1.4-25,4.8
		c-1,0.4-2,0.9-3,1.4c-3.6,1.9-4.8,1.7-7.2-1.5C29.6,155.6,29.6,112.2,29.6,68.8z"/>
</g>
</svg>
