<?xml version="1.0" encoding="utf-8"?>
<!-- Generator: Adobe Illustrator 18.1.1, SVG Export Plug-In . SVG Version: 6.00 Build 0)  -->
<svg version="1.1" id="Layer_1" xmlns="http://www.w3.org/2000/svg" xmlns:xlink="http://www.w3.org/1999/xlink" x="0px" y="0px"
	 viewBox="0 0 30 30" enable-background="new 0 0 30 30" xml:space="preserve">
<g enable-background="new    ">
	<path d="M7.3,25.6V4.1h7.4c2.7,0,4.7,0.5,6.2,1.5c1.5,1,2.2,2.5,2.2,4.4c0,1-0.2,1.9-0.7,2.7s-1.2,1.4-2.2,1.8
		c1.3,0.3,2.2,0.9,2.8,1.7c0.6,0.9,0.9,1.9,0.9,3c0,2.1-0.7,3.7-2.1,4.8c-1.4,1.1-3.4,1.6-6.1,1.6H7.3z M12.3,13.1h2.5
		c1.1,0,2-0.2,2.5-0.7c0.6-0.4,0.8-1,0.8-1.8c0-0.9-0.3-1.6-0.9-2c-0.6-0.4-1.4-0.6-2.6-0.6h-2.4V13.1z M12.3,16.4v5.4h3.4
		c1.1,0,1.9-0.2,2.4-0.6c0.5-0.4,0.8-1.1,0.8-1.9c0-0.9-0.2-1.6-0.7-2.1c-0.5-0.5-1.2-0.7-2.2-0.7H12.3z"/>
</g>
<g enable-background="new    ">
	<path d="M7.3,25.6V4.1h7.4c2.7,0,4.7,0.5,6.2,1.5c1.5,1,2.2,2.5,2.2,4.4c0,1-0.2,1.9-0.7,2.7s-1.2,1.4-2.2,1.8
		c1.3,0.3,2.2,0.9,2.8,1.7c0.6,0.9,0.9,1.9,0.9,3c0,2.1-0.7,3.7-2.1,4.8c-1.4,1.1-3.4,1.6-6.1,1.6H7.3z M12.3,13.1h2.5
		c1.1,0,2-0.2,2.5-0.7c0.6-0.4,0.8-1,0.8-1.8c0-0.9-0.3-1.6-0.9-2c-0.6-0.4-1.4-0.6-2.6-0.6h-2.4V13.1z M12.3,16.4v5.4h3.4
		c1.1,0,1.9-0.2,2.4-0.6c0.5-0.4,0.8-1.1,0.8-1.9c0-0.9-0.2-1.6-0.7-2.1c-0.5-0.5-1.2-0.7-2.2-0.7H12.3z"/>
</g>
</svg>
