<?xml version="1.0" encoding="utf-8"?>
<!-- Generator: Adobe Illustrator 18.1.1, SVG Export Plug-In . SVG Version: 6.00 Build 0)  -->
<svg version="1.1" id="Layer_1" xmlns="http://www.w3.org/2000/svg" xmlns:xlink="http://www.w3.org/1999/xlink" x="0px" y="0px"
	 viewBox="0 0 250 250" enable-background="new 0 0 250 250" xml:space="preserve">
<path fill="#FFFFFF" d="M205.8,218.6c-53.9,0-107.7,0-161.6,0c-0.3-0.1-0.7-0.3-1-0.4c-6.2-1.4-10.2-5.3-12.1-11.4
	c-0.2-0.6-0.4-1.3-0.6-1.9c0-48,0-95.9,0-143.9c0.1-0.2,0.2-0.3,0.3-0.5c2.1-8.6,7.7-13.1,16.6-13.2c7.5,0,15,0,22.5,0
	c0.6,0,1.3,0,2,0c0-3.6,0.1-6.9,0-10.2c-0.2-3.7,1.2-6.3,4.8-7.5c0.7,0,1.5,0,2.2,0c3.6,1.2,5,3.8,4.8,7.5c-0.2,3.3,0,6.7,0,10.1
	c12,0,23.7,0,35.5,0c0-3.5,0.1-6.8,0-10.1c-0.2-3.7,1.2-6.3,4.8-7.5c0.7,0,1.5,0,2.2,0c3.6,1.2,5,3.8,4.8,7.5c-0.2,3.3,0,6.7,0,10.1
	c12,0,23.7,0,35.5,0c0-3.5,0.1-6.8,0-10.1c-0.2-3.7,1.2-6.3,4.8-7.5c0.7,0,1.5,0,2.2,0c3.6,1.2,5,3.8,4.8,7.5c-0.2,3.3,0,6.7,0,10.2
	c0.9,0,1.6,0,2.2,0c7.8,0,15.6,0,23.4,0c7.2,0,13.3,4.8,15.2,11.7c0.2,0.6,0.4,1.3,0.6,1.9c0,48,0,95.9,0,143.9
	c-0.1,0.4-0.3,0.8-0.4,1.2c-1.5,6.1-5.3,10.1-11.3,11.9C207,218.3,206.4,218.4,205.8,218.6z M71.9,59.2c-0.8,0-1.4,0-1.9,0
	c-7.6,0-15.2,0-22.9,0c-3.4,0-4.8,1.4-4.8,4.8c0,46.1,0,92.1,0,138.2c0,3.3,1.5,4.7,4.7,4.7c52,0,103.9,0,155.9,0
	c3.4,0,4.8-1.4,4.8-4.8c0-46,0-92,0-138c0-3.4-1.4-4.8-4.8-4.8c-7.7,0-15.4,0-23.1,0c-0.5,0-1.1,0.1-1.8,0.1c0,0.7,0,1.3,0,1.9
	c0,3.3,0,6.5,0,9.8c-0.1,3.4-2.6,5.9-5.8,5.9c-3.2,0-5.8-2.5-5.9-5.9c-0.1-2.3,0-4.7,0-7c0-1.6,0-3.1,0-4.7c-12,0-23.7,0-35.5,0
	c0,3.9,0,7.6,0,11.4c0,2.3-0.8,4.1-2.8,5.3c-1.9,1.2-3.8,1.3-5.8,0.2c-2.1-1.1-3.1-2.9-3.1-5.3c0-3.9,0-7.7,0-11.6
	c-11.9,0-23.6,0-35.3,0c-0.1,0.2-0.2,0.3-0.2,0.4c0,3.5,0,7,0,10.5c0,4-2.4,6.7-5.8,6.7c-3.5,0-5.9-2.7-5.9-6.6
	C71.9,66.7,71.9,63.1,71.9,59.2z"/>
<path fill="#FFFFFF" d="M95.3,100.7c0,5.9,0,11.5,0,17.4c-7.7,0-15.5,0-23.3,0c0-5.7,0-11.5,0-17.4
	C79.8,100.7,87.5,100.7,95.3,100.7z"/>
<path fill="#FFFFFF" d="M113.3,100.7c7.8,0,15.4,0,23.3,0c0,5.8,0,11.6,0,17.4c-7.7,0-15.4,0-23.3,0
	C113.3,112.4,113.3,106.6,113.3,100.7z"/>
<path fill="#FFFFFF" d="M154.7,100.7c7.8,0,15.5,0,23.3,0c0,5.8,0,11.5,0,17.4c-7.7,0-15.4,0-23.3,0
	C154.7,112.4,154.7,106.6,154.7,100.7z"/>
<path fill="#FFFFFF" d="M72,147.6c0-5.8,0-11.6,0-17.4c7.8,0,15.5,0,23.3,0c0,5.8,0,11.5,0,17.4C87.6,147.6,79.9,147.6,72,147.6z"/>
<path fill="#FFFFFF" d="M113.3,147.6c0-5.9,0-11.6,0-17.4c7.8,0,15.5,0,23.3,0c0,5.7,0,11.5,0,17.4
	C128.9,147.6,121.2,147.6,113.3,147.6z"/>
<path fill="#FFFFFF" d="M154.6,147.6c0-5.9,0-11.5,0-17.4c7.8,0,15.5,0,23.3,0c0,5.7,0,11.5,0,17.4
	C170.2,147.6,162.5,147.6,154.6,147.6z"/>
<path fill="#FFFFFF" d="M95.3,177.2c-7.8,0-15.5,0-23.3,0c0-5.8,0-11.6,0-17.5c7.7,0,15.5,0,23.3,0
	C95.3,165.5,95.3,171.3,95.3,177.2z"/>
<path fill="#FFFFFF" d="M136.7,159.8c0,5.9,0,11.6,0,17.4c-7.8,0-15.5,0-23.3,0c0-5.7,0-11.5,0-17.4
	C121,159.8,128.8,159.8,136.7,159.8z"/>
<path fill="#FFFFFF" d="M154.6,177.2c0-5.8,0-11.5,0-17.4c7.8,0,15.5,0,23.4,0c0,5.8,0,11.5,0,17.4
	C170.2,177.2,162.5,177.2,154.6,177.2z"/>
</svg>
