<?xml version="1.0" encoding="utf-8"?>
<!-- Generator: Adobe Illustrator 18.1.1, SVG Export Plug-In . SVG Version: 6.00 Build 0)  -->
<svg version="1.1" id="Layer_1" xmlns="http://www.w3.org/2000/svg" xmlns:xlink="http://www.w3.org/1999/xlink" x="0px" y="0px"
	 viewBox="0 0 800 800" enable-background="new 0 0 800 800" xml:space="preserve">
<path fill="#E01414" d="M265.9,316.1c89.5,0,178.5,0,267.8,0c0,1.6,0,3.1,0,4.7c0,73.9,0,147.8,0,221.7c0,23.7-17.5,41.1-41.1,41.1
	c-62.1,0-124.2,0-186.1,0c-22.6,0-40.5-17.8-40.5-40.1c0-74.5,0-149,0-223.4C265.9,318.9,265.9,317.7,265.9,316.1z M319.5,449.8
	c0,26.4,0,52.6,0,79c0,8.7,5.7,14.7,13.6,14.6c7.7-0.1,13.1-6.2,13.1-14.7c0-52.6,0-105.4,0-158c0-1.5-0.1-3-0.4-4.5
	c-1.7-6.7-7.8-10.8-14.4-10.1c-6.9,0.7-11.9,6.4-11.9,13.8C319.5,396.6,319.5,423.2,319.5,449.8z M386.4,449.8c0,26.4,0,52.7,0,79
	c0,8.7,5.7,14.7,13.6,14.6c7.7-0.1,13.1-6.2,13.1-14.7c0-52.7,0-105.4,0-158.1c0-1.5-0.1-3-0.4-4.5c-1.8-6.7-7.8-10.8-14.4-10.1
	c-6.7,0.7-11.8,6.4-11.9,13.4C386.3,396.4,386.4,423.1,386.4,449.8z M480.2,449.7c0-26.2,0-52.4,0-78.6c0-1.6,0-3.4-0.4-5
	c-1.8-6.9-8.1-11.1-14.8-10.1c-6.8,1-11.5,6.7-11.5,14.2c0,52.8,0,105.7,0,158.5c0,8.7,5.6,14.7,13.6,14.6
	c7.7-0.1,13.1-6.2,13.1-14.7C480.2,502.5,480.1,476.1,480.2,449.7z"/>
<path fill="#E01414" d="M346.2,249c0-8.9,0-17.4,0-25.9c0.1-16.1,11.6-27.6,27.6-27.6c17.4,0,34.8,0,52.3,0
	c15.4,0,27.1,11.7,27.2,27.3c0,8.6,0,17.3,0,26.3c1.6,0,3,0,4.5,0c15.4,0,31,0,46.4,0c23.5,0.1,42.9,19.4,43,42.8
	c0.1,11.9,1.2,10.7-10.7,10.7c-92.5,0-184.9,0-277.4,0c-6.5,0-6.3,0-6.5-6.6c-1.2-24.3,14.4-40.1,29.6-44.5
	c4.6-1.3,9.6-2.2,14.3-2.3C312.7,248.8,329.1,249,346.2,249z M426.5,248.9c0-7.7,0.2-15.4-0.2-23.2c-0.1-1.2-2.8-3.3-4.5-3.4
	c-14.6-0.2-29.3-0.2-44,0c-1.6,0-4.5,2.2-4.6,3.6c-0.4,7.6-0.2,15.2-0.2,22.9C391,248.9,408.5,248.9,426.5,248.9z"/>
</svg>
